<svg width="2196" height="560" viewBox="0 0 2196 560" fill="none" xmlns="http://www.w3.org/2000/svg">
<g clip-path="url(#clip0_2063_404)">
<path d="M18.7578 169.962V389.218C18.7578 403.172 26.1922 416.097 38.3159 423.073L228.178 532.645C240.302 539.622 255.171 539.622 267.295 532.645L457.157 423.073C469.281 416.097 476.715 403.172 476.715 389.218V169.962C476.715 156.008 469.281 143.084 457.157 136.107L267.295 26.5354C255.171 19.5585 240.302 19.5585 228.178 26.5354L38.3159 136.107C26.3066 143.084 18.7578 156.008 18.7578 169.962Z" fill="#B1B0B0"/>
<path d="M289.252 322.078L262.145 396.308C261.345 398.366 261.345 400.654 262.145 402.713L308.696 530.47L362.567 499.36L297.945 322.078C296.458 317.961 290.739 317.961 289.252 322.078Z" fill="#CDCBCB"/>
<path d="M343.466 197.182C341.979 193.064 336.261 193.064 334.774 197.182L307.667 271.411C306.866 273.47 306.866 275.758 307.667 277.816L383.955 487.008L437.826 455.898L343.466 197.182Z" fill="#CDCBCB"/>
<path d="M247.736 34.6556C249.109 34.6556 250.367 34.9988 251.625 35.685L457.043 154.292C459.444 155.664 460.931 158.181 460.931 160.926V398.139C460.931 400.884 459.444 403.401 457.043 404.773L251.625 523.494C250.481 524.181 249.109 524.524 247.736 524.524C246.364 524.524 245.106 524.181 243.848 523.494L38.5444 404.888C36.1425 403.515 34.6556 400.999 34.6556 398.254V160.926C34.6556 158.181 36.1425 155.664 38.5444 154.292L243.962 35.685C245.106 34.9988 246.478 34.6556 247.736 34.6556ZM247.736 0C240.416 0 233.096 1.94438 226.577 5.71875L21.1594 124.326C8.12063 131.874 0 145.828 0 160.926V398.139C0 413.237 8.12063 427.305 21.1594 434.854L226.577 553.461C233.096 557.235 240.416 559.179 247.736 559.179C255.056 559.179 262.376 557.235 268.896 553.461L474.313 434.854C487.466 427.305 495.473 413.351 495.473 398.139V160.926C495.473 145.828 487.352 131.76 474.313 124.211L269.01 5.71875C262.376 1.94438 255.056 0 247.736 0Z" fill="#CDCBCB"/>
<path d="M111.973 487.239L130.845 435.541L168.817 467.109L133.361 499.591L111.973 487.239Z" fill="#B1B0B0"/>
<path d="M230.469 143.996H178.428C174.539 143.996 170.994 146.398 169.735 150.058L58.1055 456.125L111.976 487.235L234.929 150.172C235.959 147.199 233.785 143.996 230.469 143.996Z" fill="#CDCBCB"/>
<path d="M321.627 143.996H269.586C265.697 143.996 262.152 146.398 260.893 150.058L133.365 499.588L187.236 530.698L325.973 150.287C327.116 147.199 324.829 143.996 321.627 143.996Z" fill="#CDCBCB"/>
<path d="M717.248 207.703C722.395 207.703 726.856 208.732 730.401 210.906C733.947 213.079 737.493 217.196 740.924 223.372L808.863 346.669C809.549 348.041 809.663 349.185 809.32 350.1C808.977 351.015 807.948 351.472 806.346 351.472H780.269C777.981 351.472 776.38 350.558 775.579 348.842L761.054 322.421H664.636L650.453 348.842C649.538 350.672 647.937 351.472 645.764 351.472H619.114C617.284 351.472 616.255 351.015 615.912 350.1C615.569 349.185 615.683 348.041 616.369 346.669L683.736 223.372C687.168 217.196 690.484 213.079 693.801 210.906C697.118 208.732 700.893 207.703 705.239 207.703H717.248ZM677.331 298.402H748.015L715.418 238.241C714.846 237.326 714.16 236.754 713.131 236.754H711.873C710.958 236.754 710.157 237.212 709.585 238.241L677.331 298.402Z" fill="#B1B0B0"/>
<path d="M958.123 207.703C973.907 207.703 985.116 211.249 991.978 218.34C998.841 225.431 1002.27 235.954 1002.27 249.907V261.574C1002.27 273.354 999.87 282.619 995.066 289.481C990.263 296.344 982.485 300.69 971.619 302.634L1006.73 346.097C1007.42 346.783 1007.65 347.812 1007.3 349.185C1007.08 350.557 1005.93 351.244 1003.99 351.244H977.567C975.737 351.244 974.593 351.015 973.907 350.672C973.221 350.214 972.534 349.528 971.848 348.613L939.366 305.951H873.028V346.783C873.028 349.757 871.541 351.244 868.568 351.244H846.379C843.176 351.244 841.689 349.757 841.689 346.783V213.879C841.689 209.762 843.748 207.703 847.866 207.703H958.123ZM873.143 281.017H951.718C958.695 281.017 963.613 279.531 966.473 276.557C969.332 273.583 970.819 269.008 970.819 262.832V254.254C970.819 248.077 969.332 243.502 966.473 240.529C963.613 237.555 958.695 236.068 951.718 236.068H875.773C873.943 236.068 873.143 236.869 873.143 238.584V281.017Z" fill="#B1B0B0"/>
<path d="M1173.95 207.703C1188.02 207.703 1198.08 210.562 1204.03 216.167C1209.98 221.771 1212.95 230.235 1212.95 241.558V251.394C1212.95 262.832 1208.6 271.524 1199.8 277.472C1209.18 282.962 1213.98 291.769 1213.98 303.893V315.788C1213.98 321.278 1213.41 326.196 1212.15 330.542C1210.89 334.888 1208.95 338.662 1206.09 341.751C1203.23 344.839 1199.57 347.241 1194.88 348.842C1190.19 350.443 1184.47 351.358 1177.61 351.358H1055.68C1051.57 351.358 1049.51 349.299 1049.51 345.182V213.879C1049.51 209.762 1051.57 207.703 1055.68 207.703H1173.95ZM1080.96 267.407H1165.14C1172 267.407 1176.58 266.378 1179.09 264.319C1181.61 262.26 1182.75 259.286 1182.75 255.283V248.306C1182.75 244.074 1181.61 240.986 1179.21 238.927C1176.81 236.983 1172.92 235.954 1167.66 235.954H1083.71C1081.88 235.954 1081.08 236.869 1081.08 238.584V267.407H1080.96ZM1080.96 289.824V320.363C1080.96 322.193 1081.88 322.993 1083.59 322.993H1167.77C1173.26 322.993 1177.15 321.964 1179.44 320.019C1181.73 318.075 1182.98 314.872 1182.98 310.526V302.749C1182.98 298.517 1181.73 295.314 1179.21 293.141C1176.69 290.968 1172 289.824 1165.14 289.824H1080.96Z" fill="#B1B0B0"/>
<path d="M1290.5 207.703C1293.47 207.703 1294.96 209.19 1294.96 212.164V346.783C1294.96 349.757 1293.47 351.244 1290.5 351.244H1268.31C1265.11 351.244 1263.62 349.757 1263.62 346.783V212.278C1263.62 209.304 1265.22 207.817 1268.31 207.817L1290.5 207.703Z" fill="#B1B0B0"/>
<path d="M1505.52 207.703C1508.72 207.703 1510.21 209.19 1510.21 212.164V232.294C1510.21 235.496 1508.61 236.983 1505.52 236.983H1441.13V346.783C1441.13 349.757 1439.64 351.244 1436.67 351.244H1414.25C1411.28 351.244 1409.79 349.757 1409.79 346.783V236.983H1345.4C1342.19 236.983 1340.71 235.382 1340.71 232.294V212.164C1340.71 209.19 1342.31 207.703 1345.4 207.703H1505.52Z" fill="#B1B0B0"/>
<path d="M1667.82 207.703C1683.6 207.703 1694.81 211.249 1701.68 218.34C1708.54 225.431 1711.97 235.954 1711.97 249.907V261.574C1711.97 273.354 1709.57 282.619 1704.76 289.481C1699.96 296.344 1692.18 300.69 1681.32 302.634L1716.43 346.097C1717.12 346.783 1717.34 347.812 1717 349.185C1716.77 350.557 1715.63 351.244 1713.68 351.244H1687.26C1685.43 351.244 1684.29 351.015 1683.6 350.672C1682.92 350.214 1682.23 349.528 1681.55 348.613L1649.06 305.951H1582.73V346.783C1582.73 349.757 1581.24 351.244 1578.26 351.244H1556.08C1552.87 351.244 1551.39 349.757 1551.39 346.783V213.879C1551.39 209.762 1553.45 207.703 1557.56 207.703H1667.82ZM1582.95 281.017H1661.53C1668.51 281.017 1673.42 279.531 1676.28 276.557C1679.14 273.583 1680.63 269.008 1680.63 262.832V254.254C1680.63 248.077 1679.14 243.502 1676.28 240.529C1673.42 237.555 1668.51 236.068 1661.53 236.068H1585.58C1583.75 236.068 1582.95 236.869 1582.95 238.584V281.017Z" fill="#B1B0B0"/>
<path d="M1783.23 207.703C1786.2 207.703 1787.69 209.19 1787.69 212.164V294.056C1787.69 299.546 1788.14 304.121 1789.06 307.667C1789.97 311.327 1791.46 314.186 1793.52 316.245C1795.58 318.418 1798.32 319.905 1801.87 320.706C1805.41 321.621 1809.76 322.078 1815.14 322.078H1871.98C1877.36 322.078 1881.7 321.621 1885.25 320.706C1888.79 319.791 1891.54 318.304 1893.6 316.245C1895.66 314.072 1897.14 311.212 1897.94 307.667C1898.74 304.007 1899.2 299.546 1899.2 294.056V212.164C1899.2 209.19 1900.69 207.703 1903.66 207.703H1926.08C1929.05 207.703 1930.54 209.19 1930.54 212.164V297.144C1930.54 306.981 1929.51 315.33 1927.45 322.307C1925.39 329.169 1922.08 334.774 1917.5 339.12C1912.93 343.466 1906.98 346.554 1899.66 348.499C1892.34 350.443 1883.53 351.358 1873.12 351.358H1813.99C1803.58 351.358 1794.78 350.443 1787.57 348.499C1780.37 346.554 1774.42 343.466 1769.84 339.12C1765.27 334.774 1761.95 329.169 1759.78 322.307C1757.61 315.444 1756.58 306.981 1756.58 297.144V212.164C1756.58 209.19 1758.18 207.703 1761.27 207.703H1783.23Z" fill="#B1B0B0"/>
<path d="M2018.72 207.703C2021.69 207.703 2024.33 207.932 2026.5 208.275C2028.67 208.733 2030.62 209.419 2032.22 210.677C2033.82 211.821 2035.31 213.422 2036.68 215.366C2037.94 217.311 2039.31 219.941 2040.68 223.258L2083.34 321.735C2083.91 322.993 2084.83 323.565 2086.2 323.565H2088.72C2090.09 323.565 2091.01 322.993 2091.58 321.735L2134.24 223.258C2135.61 219.941 2136.98 217.311 2138.24 215.366C2139.5 213.422 2140.99 211.821 2142.7 210.677C2144.3 209.533 2146.25 208.733 2148.31 208.275C2150.48 207.818 2153 207.703 2155.97 207.703H2177.93C2185.02 207.703 2189.83 209.304 2192.34 212.507C2194.86 215.709 2196 221.199 2196 228.977V346.783C2196 349.757 2194.4 351.244 2191.31 351.244H2170.38C2167.41 351.244 2165.92 349.757 2165.92 346.783V239.614C2165.92 238.241 2165.35 237.555 2164.32 237.555H2162.49C2161.12 237.555 2160.2 238.127 2159.86 239.156L2118.46 331.114C2116.85 334.774 2115.14 337.976 2113.42 340.493C2111.71 343.009 2109.88 345.068 2107.93 346.783C2105.99 348.384 2103.7 349.642 2101.19 350.329C2098.67 351.015 2095.7 351.358 2092.26 351.358H2082.43C2079 351.358 2076.02 351.015 2073.51 350.329C2070.99 349.642 2068.7 348.499 2066.76 346.783C2064.81 345.182 2062.87 343.009 2061.27 340.493C2059.55 337.976 2057.84 334.888 2056.24 331.114L2014.83 239.156C2014.37 238.013 2013.57 237.555 2012.2 237.555H2010.37C2009.23 237.555 2008.77 238.241 2008.77 239.614V346.783C2008.77 349.757 2007.28 351.244 2004.31 351.244H1983.38C1980.18 351.244 1978.69 349.757 1978.69 346.783V228.977C1978.69 221.199 1979.95 215.709 1982.35 212.507C1984.87 209.304 1989.67 207.703 1996.88 207.703H2018.72Z" fill="#B1B0B0"/>
</g>
<defs>
<clipPath id="clip0_2063_404">
<rect width="2196" height="559.179" fill="white"/>
</clipPath>
</defs>
</svg>
