<svg width="2196" height="559" viewBox="0 0 2196 559" fill="none" xmlns="http://www.w3.org/2000/svg">
<path d="M777.236 467.036H721.715V196.855H777.236V467.036Z" fill="#B1B0B0"/>
<path d="M977.838 191.543C1008.49 191.543 1033.53 202.29 1052.93 223.784C1072.3 245.277 1082.01 272.606 1082.01 305.74V466.999H1026.49V314.197C1026.49 293.402 1019.79 276.207 1006.39 262.64C992.995 249.075 976.442 242.291 956.707 242.291C934.488 242.291 916.343 249.075 902.247 262.64C888.151 276.207 881.088 293.402 881.088 314.197V466.999H825.566V196.847H881.088V266.631C888.485 243.379 900.739 225.04 917.851 211.641C934.934 198.242 954.949 191.543 977.866 191.543H977.838Z" fill="#B1B0B0"/>
<path d="M1255.13 191.543C1298.48 191.543 1333.73 207.063 1360.87 238.075C1388 269.116 1399.11 306.633 1394.17 350.709H1170.52C1174.4 372.567 1184.45 390.292 1200.67 403.857C1216.88 417.424 1236.42 424.208 1259.34 424.208C1276.95 424.208 1292.73 419.881 1306.66 411.254C1320.59 402.629 1331.42 390.905 1339.18 376.083L1385.71 396.712C1373.73 419.63 1356.62 437.94 1334.43 451.703C1312.24 465.465 1286.67 472.331 1257.75 472.331C1217.22 472.331 1183.19 458.932 1155.7 432.162C1128.2 405.393 1114.44 372.064 1114.44 332.23C1114.44 292.396 1127.92 259.011 1154.89 232.019C1181.85 205.053 1215.24 191.571 1255.1 191.571L1255.13 191.543ZM1255.13 239.667C1234.66 239.667 1216.97 245.92 1201.98 258.453C1186.99 270.958 1177.02 287.261 1172.11 307.359H1338.14C1333.57 287.261 1323.77 270.958 1308.81 258.453C1293.82 245.948 1275.92 239.667 1255.13 239.667Z" fill="#B1B0B0"/>
<path d="M1547.65 191.543C1580.09 191.543 1606.52 200.001 1626.95 216.916C1647.39 233.833 1657.63 258.174 1657.63 289.885V467.027H1602.11V395.121C1585.53 446.594 1552.23 472.331 1502.18 472.331C1478.9 472.331 1459.52 465.38 1444 451.451C1428.48 437.522 1420.75 419.294 1420.75 396.74C1420.75 370.305 1430.08 350.459 1448.78 337.254C1467.45 324.051 1491.26 315.845 1520.15 312.663L1572.49 307.359C1592.23 305.6 1602.11 296.779 1602.11 280.924C1602.11 267.888 1597.09 257.477 1587.04 249.744C1576.99 241.984 1563.87 238.103 1547.65 238.103C1531.43 238.103 1517.06 242.347 1505.61 250.804C1494.17 259.262 1486.85 271.601 1483.67 287.818L1428.68 274.587C1433.62 249.214 1446.82 229.032 1468.35 214.041C1489.84 199.08 1516.27 191.571 1547.65 191.571V191.543ZM1520.15 427.361C1543.07 427.361 1562.44 419.685 1578.3 404.36C1594.15 389.035 1602.08 371.142 1602.08 350.682V335.887C1597.87 342.949 1587.62 347.332 1571.4 349.09L1520.13 355.427C1506.73 357.213 1496.06 361.149 1488.14 367.318C1480.21 373.488 1476.25 381.862 1476.25 392.441C1476.25 403.021 1480.21 411.479 1488.14 417.815C1496.06 424.152 1506.73 427.334 1520.13 427.334L1520.15 427.361Z" fill="#B1B0B0"/>
<path d="M683.451 467.036H427.004V196.855H485.679V414.697H683.451V467.036Z" fill="#B1B0B0"/>
<path d="M1709.98 191.535C1738.88 191.535 1762.31 168.102 1762.31 139.196C1762.31 110.29 1738.88 86.8574 1709.98 86.8574C1681.07 86.8574 1657.64 110.29 1657.64 139.196C1657.64 168.102 1681.07 191.535 1709.98 191.535Z" fill="#B1B0B0"/>
</svg>
