<svg width="2196" height="309" viewBox="0 0 2196 309" fill="none" xmlns="http://www.w3.org/2000/svg">
<path d="M117.415 304.351C100.121 304.351 84.063 302.017 69.24 297.351C54.417 292.684 41.9272 285.685 31.7707 276.352C21.6142 267.019 14.34 255.352 9.94799 241.353C5.83049 227.353 5.28149 211.021 8.30099 192.355C10.497 180.551 12.8302 168.748 15.3007 156.944C18.0457 145.141 20.7907 133.2 23.5357 121.122C32.5942 84.0644 48.927 55.9281 72.534 36.7131C96.141 17.4981 127.983 7.89062 168.06 7.89062C185.353 7.89062 201.274 10.3611 215.823 15.3021C230.646 19.9686 243.136 27.1056 253.292 36.7131C263.723 46.3206 270.997 58.1241 275.115 72.1236C279.507 86.1231 280.056 102.456 276.762 121.122C274.84 133.2 272.507 145.141 269.762 156.944C267.292 168.748 264.684 180.551 261.939 192.355C252.606 229.961 236.136 258.097 212.529 276.763C188.922 295.155 157.217 304.351 117.415 304.351ZM122.767 245.059C137.59 245.059 150.629 240.667 161.884 231.883C173.138 223.099 181.099 209.099 185.765 189.884C188.785 177.806 191.392 166.414 193.588 155.709C196.059 145.003 198.255 133.886 200.176 122.357C203.745 103.142 202.098 89.1426 195.235 80.3586C188.373 71.5746 177.53 67.1826 162.707 67.1826C147.884 67.1826 134.845 71.5746 123.591 80.3586C112.611 89.1426 104.788 103.142 100.121 122.357C97.1017 133.886 94.3567 145.003 91.8862 155.709C89.6902 166.414 87.4942 177.806 85.2982 189.884C82.0042 209.099 83.6512 223.099 90.2392 231.883C96.8272 240.667 107.67 245.059 122.767 245.059ZM320.372 300.233C317.627 300.233 315.431 299.272 313.784 297.351C312.137 295.429 311.588 292.959 312.137 289.939L368.959 22.3019C369.508 19.2824 371.018 16.8119 373.488 14.8904C375.959 12.9689 378.566 12.0081 381.311 12.0081H490.837C507.581 12.0081 522.679 13.9296 536.129 17.7726C549.854 21.6156 561.246 27.5174 570.305 35.4779C579.363 43.4384 585.677 53.4576 589.245 65.5356C592.814 77.3391 592.951 91.2014 589.657 107.122C582.794 138.69 568.795 162.022 547.658 177.12C526.796 192.217 498.66 199.766 463.25 199.766H407.663L388.723 289.939C388.174 292.959 386.664 295.429 384.194 297.351C381.998 299.272 379.39 300.233 376.37 300.233H320.372ZM418.369 142.945H465.72C476.975 142.945 486.994 139.925 495.778 133.886C504.836 127.847 510.738 118.651 513.483 106.299C514.856 99.1619 515.13 92.8484 514.307 87.3584C513.483 81.8684 510.601 77.4764 505.66 74.1824C500.993 70.8884 493.719 69.2414 483.837 69.2414H434.427L418.369 142.945ZM665.74 300.233C662.721 300.233 660.388 299.272 658.741 297.351C657.094 295.429 656.545 292.959 657.094 289.939L702.798 76.6529H629.507C626.762 76.6529 624.566 75.6921 622.919 73.7706C621.272 71.5746 620.723 69.1041 621.272 66.3591L630.742 22.3019C631.291 19.2824 632.663 16.8119 634.859 14.8904C637.33 12.9689 640.075 12.0081 643.094 12.0081H864.612C867.632 12.0081 869.828 12.9689 871.2 14.8904C872.847 16.8119 873.396 19.2824 872.847 22.3019L863.377 66.3591C862.828 69.1041 861.318 71.5746 858.848 73.7706C856.655 75.6921 854.047 76.6529 851.028 76.6529H777.736L732.444 289.939C731.895 292.959 730.385 295.429 727.915 297.351C725.719 299.272 723.111 300.233 720.091 300.233H665.74ZM881.477 300.233C878.457 300.233 876.124 299.272 874.477 297.351C872.83 295.429 872.281 292.959 872.83 289.939L930.063 22.3019C930.612 19.2824 932.122 16.8119 934.593 14.8904C937.063 12.9689 939.671 12.0081 942.416 12.0081H998.002C1000.75 12.0081 1002.94 12.9689 1004.59 14.8904C1006.24 16.8119 1006.79 19.2824 1006.24 22.3019L949.004 289.939C948.455 292.959 946.945 295.429 944.475 297.351C942.279 299.272 939.808 300.233 937.063 300.233H881.477ZM1050.39 300.233C1047.37 300.233 1045.04 299.272 1043.39 297.351C1041.74 295.429 1041.19 292.959 1041.74 289.939L1098.56 22.3019C1099.11 19.2824 1100.62 16.8119 1103.09 14.8904C1105.56 12.9689 1108.31 12.0081 1111.33 12.0081H1155.8C1160.19 12.0081 1163.21 13.2434 1164.86 15.7139C1166.78 17.9099 1168.01 19.6941 1168.56 21.0666L1213.03 151.18L1313.5 21.0666C1314.32 19.6941 1315.97 17.9099 1318.44 15.7139C1321.18 13.2434 1324.75 12.0081 1329.14 12.0081H1373.61C1376.63 12.0081 1378.97 12.9689 1380.61 14.8904C1382.26 16.8119 1382.81 19.2824 1382.26 22.3019L1325.44 289.939C1324.89 292.959 1323.38 295.429 1320.91 297.351C1318.44 299.272 1315.69 300.233 1312.67 300.233H1263.26C1260.52 300.233 1258.32 299.272 1256.68 297.351C1255.03 295.429 1254.48 292.959 1255.03 289.939L1287.15 138.004L1224.15 221.589C1222.23 223.785 1219.89 225.981 1217.15 228.177C1214.68 230.098 1211.52 231.059 1207.68 231.059H1186.27C1182.42 231.059 1179.68 230.098 1178.03 228.177C1176.38 226.255 1175.15 224.059 1174.33 221.589L1145.09 134.298L1111.74 289.939C1111.19 292.959 1109.68 295.429 1107.21 297.351C1105.01 299.272 1102.54 300.233 1099.8 300.233H1050.39ZM1413.6 300.233C1410.58 300.233 1408.25 299.272 1406.6 297.351C1404.96 295.429 1404.41 292.959 1404.96 289.939L1462.19 22.3019C1462.74 19.2824 1464.25 16.8119 1466.72 14.8904C1469.19 12.9689 1471.8 12.0081 1474.54 12.0081H1530.13C1532.87 12.0081 1535.07 12.9689 1536.72 14.8904C1538.36 16.8119 1538.91 19.2824 1538.36 22.3019L1481.13 289.939C1480.58 292.959 1479.07 295.429 1476.6 297.351C1474.41 299.272 1471.94 300.233 1469.19 300.233H1413.6ZM1673.92 304.351C1646.47 304.351 1623.96 300.508 1606.39 292.822C1589.1 285.136 1576.61 274.979 1568.92 262.352C1561.51 249.451 1558.9 235.863 1561.1 221.589C1561.64 219.393 1562.74 217.471 1564.39 215.824C1566.31 213.903 1568.51 212.942 1570.98 212.942H1623.68C1627.53 212.942 1630.27 213.628 1631.92 215.001C1633.56 216.373 1635.21 218.158 1636.86 220.354C1637.96 224.471 1640.15 228.451 1643.45 232.294C1646.74 236.137 1651.27 239.294 1657.03 241.765C1663.07 243.961 1670.48 245.059 1679.27 245.059C1695.19 245.059 1707.95 242.588 1717.56 237.647C1727.17 232.706 1732.8 225.981 1734.44 217.471C1736.09 211.432 1734.99 206.491 1731.15 202.648C1727.58 198.531 1721.13 194.962 1711.8 191.943C1702.74 188.649 1690.52 185.355 1675.15 182.061C1655.11 177.669 1638.64 171.63 1625.74 163.944C1612.84 155.983 1603.78 145.964 1598.57 133.886C1593.62 121.534 1592.94 106.848 1596.51 89.8289C1602 64.5749 1615.58 44.6736 1637.27 30.1251C1658.96 15.3021 1687.09 7.89062 1721.68 7.89062C1739.52 7.89062 1755.3 10.3611 1769.03 15.3021C1783.03 20.2431 1794.7 26.8311 1804.03 35.0661C1813.36 43.3011 1820.09 52.0851 1824.2 61.4181C1828.32 70.4766 1829.69 79.3979 1828.32 88.1819C1828.05 90.3779 1826.95 92.4366 1825.03 94.3581C1823.11 96.0051 1820.91 96.8286 1818.44 96.8286H1763.27C1760.52 96.8286 1758.05 96.2796 1755.85 95.1816C1753.93 94.0836 1752.29 92.2994 1750.91 89.8289C1750.91 83.7899 1747.76 78.5744 1741.44 74.1824C1735.13 69.5159 1726.76 67.1826 1716.33 67.1826C1704.52 67.1826 1694.64 69.3786 1686.68 73.7706C1678.72 77.8881 1673.78 84.3389 1671.86 93.1229C1670.48 98.6129 1671.17 103.417 1673.92 107.534C1676.94 111.652 1682.43 115.22 1690.39 118.24C1698.62 121.259 1709.88 124.416 1724.15 127.71C1748.31 132.376 1767.25 138.69 1780.97 146.65C1794.7 154.336 1803.89 164.081 1808.56 175.885C1813.5 187.688 1814.19 202.099 1810.62 219.118C1804.58 247.117 1789.89 268.391 1766.56 282.94C1743.5 297.214 1712.62 304.351 1673.92 304.351ZM1861.3 300.233C1858.29 300.233 1855.95 299.272 1854.3 297.351C1852.66 295.429 1852.11 292.959 1852.66 289.939L1909.48 22.3019C1910.03 19.2824 1911.54 16.8119 1914.01 14.8904C1916.48 12.9689 1919.22 12.0081 1922.24 12.0081H1966.71C1971.1 12.0081 1974.12 13.2434 1975.77 15.7139C1977.69 17.9099 1978.93 19.6941 1979.48 21.0666L2023.95 151.18L2124.41 21.0666C2125.24 19.6941 2126.88 17.9099 2129.35 15.7139C2132.1 13.2434 2135.67 12.0081 2140.06 12.0081H2184.53C2187.55 12.0081 2189.88 12.9689 2191.53 14.8904C2193.18 16.8119 2193.72 19.2824 2193.18 22.3019L2136.35 289.939C2135.8 292.959 2134.29 295.429 2131.82 297.351C2129.35 299.272 2126.61 300.233 2123.59 300.233H2074.18C2071.43 300.233 2069.24 299.272 2067.59 297.351C2065.94 295.429 2065.4 292.959 2065.94 289.939L2098.06 138.004L2035.06 221.589C2033.14 223.785 2030.81 225.981 2028.06 228.177C2025.59 230.098 2022.44 231.059 2018.59 231.059H1997.18C1993.34 231.059 1990.59 230.098 1988.95 228.177C1987.3 226.255 1986.06 224.059 1985.24 221.589L1956.01 134.298L1922.66 289.939C1922.11 292.959 1920.6 295.429 1918.13 297.351C1915.93 299.272 1913.46 300.233 1910.71 300.233H1861.3Z" fill="#B1B0B0"/>
</svg>
