<svg width="2197" height="480" viewBox="0 0 2197 480" fill="none" xmlns="http://www.w3.org/2000/svg">
<path d="M683.41 405.327V102.916H728.404L732.69 127.326H734.832C747.688 110.606 769.534 98.6309 799.952 98.6309C855.621 98.6309 900.194 144.046 900.194 211.27C900.194 278.493 855.659 323.908 799.952 323.908C769.955 323.908 748.989 311.474 737.855 297.356H735.712V405.288H683.448L683.41 405.327ZM847.892 211.308C847.892 171.9 822.602 147.069 791.764 147.069C760.926 147.069 735.636 171.9 735.636 211.308C735.636 250.716 760.926 275.547 791.764 275.547C822.602 275.547 847.892 250.716 847.892 211.308Z" fill="#B1B0B0"/>
<path d="M926.711 211.27C926.711 145.729 973.81 98.6309 1036.79 98.6309C1099.76 98.6309 1146.86 145.729 1146.86 211.27C1146.86 276.81 1099.76 323.908 1036.79 323.908C973.81 323.908 926.711 276.351 926.711 211.27ZM1094.18 211.27C1094.18 172.703 1068.47 147.03 1036.79 147.03C1005.11 147.03 978.975 172.741 978.975 211.27C978.975 249.798 1005.11 275.088 1036.79 275.088C1068.47 275.088 1094.18 249.836 1094.18 211.27Z" fill="#B1B0B0"/>
<path d="M1184.74 319.66V19.8125H1237V319.66H1184.74Z" fill="#B1B0B0"/>
<path d="M1431.02 102.916H1486.69L1392.45 366.339C1383.04 392.471 1370.18 405.327 1336.32 405.327H1285.78V356.927H1328.63C1336.36 356.927 1340.61 353.063 1343.21 346.635L1348.34 332.517L1260.11 102.916H1315.78L1371.91 253.28H1380.48L1431.02 102.916Z" fill="#B1B0B0"/>
<path d="M1496.68 330.374H1549.78C1551.92 344.493 1566.04 363.776 1599.48 363.776C1630.74 363.776 1651.32 344.072 1651.32 314.076V283.658H1649.18C1637.63 296.093 1616.2 307.227 1588.77 307.227C1533.1 307.227 1490.25 264.375 1490.25 202.699C1490.25 141.023 1533.1 98.6309 1588.77 98.6309C1617.46 98.6309 1638.47 110.186 1651.75 126.484H1653.89L1658.17 102.916H1703.59V314.076C1703.59 371.466 1665.02 409.612 1599.48 409.612C1526.25 409.612 1497.98 361.633 1496.68 330.374ZM1651.32 202.738C1651.32 168.915 1627.34 145.347 1596.92 145.347C1566.5 145.347 1542.93 168.915 1542.93 202.738C1542.93 236.56 1566.92 260.549 1596.92 260.549C1626.91 260.549 1651.32 236.981 1651.32 202.738Z" fill="#B1B0B0"/>
<path d="M1739.9 211.27C1739.9 145.729 1787 98.6309 1849.97 98.6309C1912.95 98.6309 1960.05 145.729 1960.05 211.27C1960.05 276.81 1912.95 323.908 1849.97 323.908C1787 323.908 1739.9 276.351 1739.9 211.27ZM1907.36 211.27C1907.36 172.703 1881.65 147.03 1849.97 147.03C1818.29 147.03 1792.16 172.741 1792.16 211.27C1792.16 249.798 1818.29 275.088 1849.97 275.088C1881.65 275.088 1907.36 249.836 1907.36 211.27Z" fill="#B1B0B0"/>
<path d="M1996.43 319.662V102.916H2041.39L2045.68 123.462H2047.82C2056.39 113.629 2077.81 98.6309 2110.34 98.6309C2160.04 98.6309 2196 134.596 2196 189.423V319.623H2143.74V196.272C2143.74 168.418 2124.03 148.293 2097.06 148.293C2070.09 148.293 2048.66 169.298 2048.66 196.272V319.623H1996.4L1996.43 319.662Z" fill="#B1B0B0"/>
<path d="M402.156 337.873L530.634 263.686C537.445 259.746 541.653 252.438 541.653 244.594V96.2203C541.653 88.3769 537.445 81.0692 530.634 77.1283L402.156 2.94129C395.345 -0.999537 386.89 -0.961277 380.118 2.94129L251.639 77.1283C244.829 81.0692 240.62 88.3769 240.62 96.2203V361.365L150.517 413.361L60.4133 361.365V257.335L150.517 205.339L209.935 239.659V169.872L161.536 141.903C158.207 139.99 154.381 138.957 150.517 138.957C146.652 138.957 142.826 139.99 139.498 141.903L11.019 216.09C4.20865 220.031 0 227.339 0 235.182V383.556C0 391.4 4.20865 398.707 11.019 402.648L139.498 476.835C146.308 480.738 154.725 480.738 161.536 476.835L290.014 402.648C296.825 398.707 301.033 391.4 301.033 383.556V118.411L302.64 117.493L391.098 66.4154L481.202 118.411V222.442L391.098 274.438L331.756 240.194V309.981L380.079 337.873C386.89 341.776 395.345 341.776 402.117 337.873H402.156Z" fill="url(#paint0_linear_2061_403)"/>
<defs>
<linearGradient id="paint0_linear_2061_403" x1="-1.75999" y1="398.095" x2="518.391" y2="96.1821" gradientUnits="userSpaceOnUse">
<stop stop-color="#B1B0B0"/>
<stop offset="0.0001" stop-color="#803BDF"/>
<stop offset="0.0002" stop-color="#B1B0B0"/>
</linearGradient>
</defs>
</svg>
