<svg width="2196" height="559" viewBox="0 0 2196 559" fill="none" xmlns="http://www.w3.org/2000/svg">
<path d="M1135.72 203.453L1095.59 209.423C1090.98 186.379 1075.26 177.699 1060.62 177.699C1041.36 177.699 1025.64 186.103 1025.64 205.356C1025.64 222.163 1041.91 240.601 1066.31 246.838L1092.07 252.801C1118.36 259.308 1140.87 278.832 1141.14 301.336C1141.41 332.514 1115.11 362.066 1068.75 362.066C1026.72 362.066 996.629 351.492 986.867 319.774L1025.91 308.924C1031.33 327.362 1051.67 342.548 1069.29 342.548C1086.64 342.548 1106.98 333.869 1106.98 317.333C1107.13 310.2 1104.85 303.228 1100.51 297.562C1096.18 291.896 1090.04 287.871 1083.12 286.15L1053.02 278.286C1014.79 270.153 991.206 249.549 991.206 220.537C991.206 180.681 1022.66 159.262 1057.9 159.262C1099.12 159.259 1125.69 168.209 1135.72 203.453Z" fill="#B1B0B0"/>
<path d="M1224.37 361.406C1185.33 361.406 1159.57 334.025 1159.57 297.96C1159.57 254.582 1189.13 226.115 1230.33 226.115C1254.46 226.115 1274.26 240.481 1275.89 260.82L1252.03 265.426C1252.03 254.582 1252.03 238.855 1227.35 238.855C1207.02 238.855 1190.21 256.753 1190.21 282.779C1190.21 315.857 1208.92 336.736 1235.22 336.736C1248.28 336.706 1261 332.529 1271.55 324.806L1273.44 339.172C1266.94 350.022 1249.86 361.406 1224.37 361.406Z" fill="#B1B0B0"/>
<path d="M1346.91 291.729V361.678H1314.38V242.108L1338.78 225.842L1346.1 260.276C1352.33 242.384 1365.08 229.098 1380.8 229.098C1383.55 229.087 1386.26 229.633 1388.79 230.702C1391.31 231.771 1393.6 233.342 1395.5 235.319C1397.4 237.297 1398.88 239.639 1399.85 242.205C1400.82 244.771 1401.25 247.507 1401.14 250.247V252.413L1372.13 269.765C1371.04 262.447 1368.87 252.413 1361.82 252.958C1351.79 263.257 1348 275.187 1346.91 291.729Z" fill="#B1B0B0"/>
<path d="M1477.58 227.725C1437.18 227.725 1409.25 255.106 1409.25 295.778C1409.25 337.53 1436.64 362.475 1477.58 363.016C1518.52 362.2 1545.9 337.26 1545.9 295.233C1545.63 257.007 1520.14 227.725 1477.58 227.725ZM1477.58 350C1453.45 350 1446.94 324.515 1446.94 295.503C1446.94 266.491 1453.45 240.195 1477.58 240.465C1501.44 240.735 1508.22 266.766 1508.22 295.503C1508.22 324.515 1501.44 350 1477.58 350Z" fill="#B1B0B0"/>
<path d="M1581.96 174.337L1614.49 152.643L1614.22 361.681H1581.96V174.337Z" fill="#B1B0B0"/>
<path d="M1665.46 174.337L1697.99 152.643L1697.72 361.681H1665.46V174.337Z" fill="#B1B0B0"/>
<path d="M553.573 67.9958C545.637 67.5907 537.424 67.1703 530.461 72.9382C526.973 75.8268 522.533 80.3457 524.239 86.213C524.407 86.7939 524.626 87.3588 524.894 87.9013C524.967 88.0498 525.068 88.1736 525.148 88.3163C525.342 88.6809 525.562 89.0315 525.805 89.3654C525.913 89.5068 526.05 89.6233 526.165 89.757C526.413 90.0571 526.683 90.3395 526.97 90.6023C527.108 90.7224 527.273 90.8183 527.42 90.9308C527.729 91.1774 528.052 91.4038 528.39 91.6087C528.56 91.7072 528.755 91.7819 528.934 91.872C529.299 92.0639 529.675 92.2349 530.06 92.3842C530.267 92.4607 530.5 92.5147 530.717 92.5817C531.122 92.7078 531.53 92.8343 531.972 92.9279C532.229 92.9823 532.512 93.0138 532.782 93.0575C533.218 93.1277 533.652 93.1997 534.119 93.2411C534.446 93.2699 534.798 93.2753 535.139 93.2902C535.489 93.305 535.818 93.3401 536.185 93.3401C536.378 93.3401 536.574 93.3401 536.77 93.3343C545.049 93.1615 553.476 93.2038 561.621 93.2492C564.01 93.2618 566.398 93.2711 568.786 93.2771C569.574 93.2798 570.361 93.2857 571.152 93.287C571.097 93.6921 571.033 94.0859 570.972 94.4829C570.897 94.9632 570.827 95.4493 570.741 95.9182C570.651 96.3994 570.549 96.8634 570.45 97.3315C570.354 97.7865 570.264 98.2474 570.158 98.6912C570.048 99.1521 569.921 99.595 569.8 100.041C569.684 100.472 569.575 100.908 569.448 101.326C569.316 101.764 569.167 102.182 569.024 102.608C568.889 103.013 568.757 103.427 568.609 103.823C568.455 104.24 568.282 104.639 568.114 105.043C567.958 105.424 567.809 105.811 567.642 106.181C567.464 106.575 567.269 106.95 567.08 107.332C566.903 107.689 566.734 108.055 566.546 108.402C566.346 108.774 566.126 109.127 565.913 109.488C565.717 109.821 565.528 110.163 565.322 110.485C565.097 110.836 564.853 111.167 564.617 111.505C564.401 111.815 564.192 112.135 563.966 112.433C563.717 112.763 563.448 113.072 563.187 113.39C562.952 113.675 562.725 113.97 562.48 114.245C562.205 114.555 561.909 114.844 561.622 115.141C561.369 115.402 561.127 115.672 560.863 115.924C560.56 116.213 560.237 116.481 559.922 116.758C559.652 116.994 559.392 117.241 559.112 117.468C558.779 117.738 558.424 117.99 558.077 118.247C557.793 118.458 557.521 118.679 557.229 118.88C556.861 119.134 556.471 119.367 556.089 119.607C555.796 119.79 555.514 119.985 555.213 120.161C554.801 120.401 554.366 120.619 553.939 120.843C553.645 120.997 553.364 121.163 553.063 121.31C552.573 121.549 552.06 121.766 551.55 121.985C551.291 122.097 551.044 122.222 550.779 122.329C549.995 122.647 549.189 122.943 548.36 123.219C547.217 123.598 546.071 123.923 544.921 124.194C544.556 124.281 544.19 124.333 543.824 124.41C543.04 124.575 542.257 124.748 541.472 124.87C540.944 124.953 540.415 124.997 539.886 125.062C539.265 125.138 538.644 125.231 538.023 125.285C537.392 125.339 536.762 125.357 536.132 125.389C535.615 125.416 535.097 125.46 534.581 125.473C533.902 125.49 533.228 125.477 532.552 125.473C532.086 125.473 531.617 125.483 531.153 125.473C530.442 125.456 529.737 125.413 529.03 125.377C528.604 125.355 528.175 125.345 527.752 125.317C527.042 125.272 526.339 125.206 525.636 125.145C525.218 125.109 524.798 125.082 524.382 125.042C523.755 124.981 523.135 124.909 522.513 124.841C522.049 124.79 521.582 124.744 521.121 124.69C502.897 110.163 496.74 89.3978 504.648 69.1161C512.821 48.1574 530.341 37.8828 555.283 39.396C560.901 41.2693 566.339 43.6469 571.528 46.4997L571.547 46.5109C572.396 46.9958 573.232 47.5002 574.056 48.0241L574.076 48.0376C574.898 48.5621 575.705 49.1079 576.498 49.675L576.528 49.6971C577.315 50.2624 578.085 50.8507 578.84 51.4619L578.902 51.5136C579.641 52.1165 580.363 52.743 581.069 53.3932L581.193 53.5134C581.87 54.1435 582.53 54.7984 583.173 55.478C583.245 55.5545 583.312 55.6369 583.384 55.7143C583.984 56.3602 584.57 57.024 585.133 57.7167C585.253 57.8635 585.365 58.021 585.483 58.17C585.984 58.8001 586.473 59.4455 586.944 60.117C587.121 60.3704 587.285 60.6391 587.457 60.8979C587.844 61.4795 588.227 62.0682 588.59 62.678C588.835 63.0908 589.062 63.5246 589.294 63.9518C589.555 64.4289 589.819 64.9028 590.065 65.3979C590.38 66.0379 590.677 66.7031 590.968 67.3751C591.071 67.611 591.178 67.8419 591.278 68.0818L557.64 68.1718C556.29 68.1331 554.932 68.0651 553.573 67.9958Z" fill="#AEAEAE"/>
<path d="M533.824 127.737C533.554 127.737 533.284 127.735 533.014 127.733L532.534 127.729H532.023L531.091 127.725C530.506 127.71 529.921 127.68 529.34 127.648L520.213 126.852L519.711 126.451C500.682 111.28 494.266 89.5412 502.548 68.3007C511.107 46.3437 529.391 35.5732 555.416 37.1516L556.026 37.274C561.777 39.1816 567.339 41.6162 572.642 44.547C573.542 45.0614 574.41 45.5822 575.264 46.1286C576.141 46.6889 576.983 47.2565 577.808 47.8479C578.663 48.4623 579.468 49.0767 580.257 49.7167C581.097 50.4035 581.856 51.0593 582.597 51.7421C583.44 52.532 584.136 53.2192 584.811 53.9353C585.666 54.8652 586.283 55.5655 586.878 56.2956L587.247 56.7731C587.775 57.4397 588.293 58.1198 588.788 58.8287L589.156 59.3836C589.741 60.2653 590.142 60.8842 590.525 61.5301C590.727 61.8722 590.918 62.2237 591.108 62.5752L589.397 64.137L591.371 63.0568C591.613 63.4979 591.854 63.9389 592.082 64.3976C592.417 65.0763 592.729 65.7762 593.035 66.4828L594.651 70.3252L557.648 70.426C556.248 70.3869 554.91 70.3189 553.571 70.251L553.451 70.2451C545.6 69.845 538.184 69.4674 531.898 74.6731C527.066 78.6752 525.372 82.0414 526.402 85.5867C526.534 86.0406 526.705 86.482 526.913 86.9059C527.263 87.4839 527.408 87.758 527.593 87.9983C528.076 88.5213 528.247 88.7288 528.451 88.9066C529.041 89.336 529.265 89.5151 529.521 89.6632L529.948 89.863C530.238 90.0171 530.536 90.1546 530.842 90.2748L530.72 92.5838L531.386 90.4342C531.746 90.5453 532.078 90.6516 532.44 90.7281L533.142 90.8374C533.576 90.9077 533.935 90.9675 534.319 91.0013L536.187 91.0913L536.727 91.0859C545.205 90.9086 553.935 90.9576 561.637 91.0004L573.733 91.0413L573.229 94.624L571.149 94.881L573.137 95.1875L572.718 97.4753L570.373 97.6896L572.579 98.1455L572.056 100.322L569.707 100.392L571.881 100.97L571.259 103.023L568.909 102.954L571.045 103.661L570.318 105.609L567.977 105.38L570.064 106.223L569.237 108.05L566.921 107.656L568.947 108.64L568.526 109.475C568.363 109.778 568.189 110.07 568.014 110.362L565.735 109.798L567.683 110.923L567.215 111.702C567.033 111.988 566.839 112.262 566.645 112.537L564.417 111.798L566.273 113.069L565.76 113.793C565.557 114.063 565.343 114.32 565.13 114.577L562.963 113.669L564.716 115.082L564.162 115.745C563.937 115.997 563.701 116.24 563.464 116.48L561.375 115.404L563.009 116.951L562.419 117.553C562.173 117.789 561.915 118.013 561.656 118.236L559.653 117.003L561.158 118.675L560.533 119.215C560.261 119.437 559.977 119.647 559.691 119.856L557.786 118.471L559.156 120.257L558.51 120.734C558.207 120.943 557.891 121.139 557.575 121.336L555.776 119.811L557.003 121.697L556.348 122.107C556.004 122.307 555.646 122.495 555.287 122.681L553.609 121.025L554.691 122.998L554.054 123.334C553.607 123.552 553.142 123.753 552.676 123.954L551.236 122.13L552.176 124.174L551.627 124.416C550.798 124.752 549.946 125.066 549.07 125.357C547.865 125.756 546.657 126.099 545.445 126.385L544.686 126.538L543.826 124.412L543.979 126.68C543.259 126.832 542.541 126.984 541.821 127.096C541.444 127.155 541.066 127.197 540.688 127.238L539.617 127.367C539.15 127.429 538.683 127.489 538.217 127.529C537.736 127.57 537.256 127.592 536.776 127.614L534.639 127.725C534.363 127.733 534.094 127.737 533.824 127.737ZM532.56 123.228L533.055 123.232C533.542 123.236 534.029 123.241 534.518 123.229L536.569 123.121C536.988 123.102 537.407 123.084 537.827 123.048C538.227 123.014 538.627 122.958 539.027 122.908L541.121 122.653C541.761 122.553 542.4 122.416 543.039 122.28L544.397 122.01C545.483 121.752 546.567 121.444 547.648 121.088C548.43 120.829 549.191 120.549 549.93 120.249L550.653 119.926C551.289 119.652 551.688 119.48 552.071 119.293L553.206 118.691C553.5 118.538 553.794 118.386 554.076 118.222L561.669 111.694L566.158 103.878L568.518 95.5305L561.605 95.5035C553.93 95.4607 545.233 95.4135 536.813 95.5881L536.181 95.5944C535.897 95.5944 535.631 95.5787 535.366 95.5615L534.835 93.2828L534.757 95.5332C534.472 95.5228 534.186 95.512 533.915 95.4882C533.42 95.4432 532.957 95.3716 532.493 95.2964C531.948 95.2159 531.717 95.1808 531.501 95.1349C531 95.0291 530.536 94.8882 530.073 94.7451C529.66 94.6276 529.462 94.5696 529.277 94.5011C528.82 94.3252 528.373 94.1236 527.939 93.8971C527.607 93.7446 527.427 93.659 527.26 93.5627C526.847 93.3145 526.45 93.0398 526.072 92.7404C525.871 92.6064 525.677 92.4617 525.492 92.307C525.139 91.9879 524.808 91.6449 524.502 91.2803C524.33 91.1098 524.169 90.9295 524.018 90.7402C523.709 90.3215 523.431 89.8816 523.184 89.4237C523.07 89.2575 522.967 89.084 522.875 88.9043C522.548 88.2431 522.281 87.5543 522.076 86.8461C519.759 78.8791 526.731 73.1045 529.021 71.2065C536.656 64.8823 545.696 65.3432 553.673 65.7496L553.569 67.9974L553.683 65.7501L553.793 65.7555C555.099 65.8221 556.404 65.8905 557.7 65.9256L587.757 65.8433C587.645 65.6344 587.532 65.4274 587.418 65.2203L586.649 63.8251C586.308 63.2503 585.945 62.6967 585.579 62.1472L585.094 61.4072C584.652 60.7739 584.188 60.1663 583.715 59.5695L585.129 57.7188L583.385 59.1401C582.851 58.4857 582.297 57.8578 581.73 57.2471C580.923 56.3784 580.296 55.7618 579.654 55.1614C578.867 54.4273 578.179 53.8336 577.476 53.2607C576.699 52.6265 575.962 52.0666 575.211 51.5269C574.423 50.9612 573.649 50.4391 572.862 49.9363C572.052 49.4187 571.245 48.934 570.427 48.4672C565.448 45.7161 560.228 43.4261 554.832 41.6259C531.114 40.2802 514.489 50.0646 506.741 69.9354C499.287 89.0551 504.998 108.67 522.014 122.526L529.141 123.131C530.121 123.182 530.661 123.212 531.204 123.225L531.994 123.228L532.56 123.228Z" fill="#B1B0B0"/>
<path d="M558.697 70.1542C558.922 70.332 559.143 70.5143 559.366 70.697C559.579 70.8699 559.792 71.0396 560.003 71.2155C560.222 71.3983 560.437 71.5878 560.654 71.7741C560.871 71.9604 561.08 72.1342 561.29 72.3228C561.481 72.492 561.667 72.6693 561.855 72.8422C562.087 73.0541 562.321 73.263 562.548 73.4804L562.578 73.5101C564.637 75.4367 566.432 77.6274 567.916 80.0251L567.929 80.0458C568.214 80.5196 568.484 81.0048 568.739 81.5014L568.77 81.5581C569.016 82.0401 569.244 82.5352 569.457 83.0393L569.506 83.1469C569.71 83.6343 569.893 84.1371 570.065 84.6439L570.127 84.8171C570.287 85.3028 570.424 85.8024 570.551 86.3078C570.574 86.3978 570.602 86.4856 570.624 86.5779C570.737 87.0523 570.827 87.5411 570.91 88.0335C570.933 88.1685 570.962 88.2972 570.983 88.4322C571.051 88.8823 571.094 89.3473 571.136 89.8131C571.154 90.0066 571.178 90.1952 571.191 90.3919C571.218 90.8046 571.221 91.2313 571.227 91.6566C571.227 91.8641 571.236 92.0689 571.233 92.2791C568.017 92.2749 564.802 92.2625 561.585 92.2418C559.312 92.2278 556.982 92.2278 554.676 92.2193C548.721 92.1995 542.713 92.1995 536.748 92.3264C530.262 92.4312 526.502 90.3717 525.212 85.9352C523.67 80.6403 527.837 76.4289 531.108 73.7216C531.645 73.2816 532.205 72.87 532.785 72.4884C532.93 72.3918 533.076 72.2975 533.223 72.2057C533.755 71.8713 534.292 71.5599 534.837 71.2858L534.953 71.2227C535.536 70.9342 536.128 70.6876 536.724 70.4603C536.878 70.4018 537.034 70.346 537.189 70.2911C537.721 70.1029 538.257 69.931 538.798 69.787C538.872 69.7667 538.946 69.742 539.02 69.7226C539.625 69.5655 540.235 69.4386 540.85 69.3274C541.014 69.2982 541.178 69.2716 541.343 69.2451C541.872 69.1595 542.403 69.0866 542.937 69.0295C543.039 69.0187 543.14 69.0034 543.242 68.9935C543.86 68.9332 544.483 68.8913 545.107 68.8616C545.28 68.8535 545.453 68.8476 545.626 68.8418C546.144 68.8229 546.663 68.8122 547.182 68.8098C547.303 68.8098 547.423 68.8062 547.544 68.8067C548.497 68.8067 549.453 68.8319 550.407 68.8679L550.546 68.8724C551.54 68.9116 552.534 68.9624 553.522 69.0119C554.834 69.0794 556.145 69.1469 557.45 69.1861C557.642 69.3319 557.833 69.4823 558.025 69.6308C558.247 69.8045 558.472 69.9765 558.697 70.1542Z" fill="#B1B0B0"/>
<path d="M536.307 94.576C529.051 94.576 524.595 91.8804 523.048 86.5591C520.915 79.2317 527.504 73.7766 529.669 71.9839C530.266 71.4944 530.889 71.0362 531.534 70.6112L532.022 70.2961C532.615 69.923 533.214 69.576 533.822 69.2708C534.505 68.9282 535.205 68.6218 535.92 68.3531L536.434 68.1654C537.019 67.9575 537.613 67.7702 538.209 67.6095C539.111 67.3688 539.778 67.2292 540.447 67.1086L540.948 67.024C541.547 66.9272 542.118 66.8494 542.692 66.7872C543.674 66.6851 544.334 66.641 544.995 66.6072L545.445 66.5892C546.126 66.5649 546.707 66.5523 547.281 66.5527C548.579 66.5527 549.531 66.5766 550.487 66.6126L553.632 66.758C554.928 66.8246 556.225 66.8899 557.515 66.9299L558.235 66.9524L559.218 67.7054L558.212 69.7727L559.586 67.9903L560.589 68.7861L559.565 70.8533L560.978 69.102L561.92 69.8892L560.855 71.9416L562.315 70.2313L563.181 70.9996L562.046 73.0133L563.56 71.348L564.1 71.8489C566.318 73.9194 568.25 76.277 569.844 78.859C570.17 79.3991 570.463 79.9289 570.741 80.4703C571.044 81.0613 571.294 81.6036 571.528 82.1568C571.806 82.8108 572.008 83.3617 572.197 83.9216C572.441 84.6476 572.593 85.1976 572.733 85.7548C572.937 86.573 573.037 87.1104 573.128 87.6528C573.281 88.5854 573.331 89.0931 573.377 89.6062L573.436 90.2421C573.463 90.658 573.47 91.0878 573.475 91.5177L573.482 92.3044L573.452 94.5274L554.668 94.4657C548.731 94.4455 542.74 94.4459 536.794 94.5724C536.63 94.5751 536.468 94.576 536.307 94.576ZM540.847 69.323L541.247 71.5379C540.688 71.6387 540.132 71.7539 539.581 71.898C538.896 72.0875 538.414 72.2405 537.937 72.4097C537.26 72.6497 536.596 72.9257 535.948 73.2365C535.363 73.5358 534.888 73.8122 534.418 74.1079L534.029 74.3554C533.514 74.6936 533.017 75.0585 532.54 75.4487C528.06 79.1574 526.466 82.1955 527.37 85.3002C528.033 87.5812 529.693 90.1832 536.709 90.0711C542.681 89.9442 548.708 89.9437 554.681 89.964L570.49 90.0198L571.134 89.8069L568.893 90.0081C568.855 89.5877 568.817 89.1678 568.755 88.7613C568.615 87.9602 568.534 87.5205 568.433 87.0933C568.253 86.3984 568.13 85.9492 567.987 85.5131C567.776 84.8996 567.611 84.4486 567.428 84.0102C567.19 83.4575 566.985 83.0106 566.763 82.5749C566.504 82.0731 566.26 81.6297 566 81.2012C564.618 78.9657 562.944 76.9244 561.022 75.1314L556.645 71.4056C555.567 71.3651 554.485 71.3106 553.405 71.2552L550.455 71.1148C549.391 71.0757 548.463 71.0523 547.537 71.0509C546.693 71.0563 546.198 71.0667 545.703 71.0847L545.103 68.8554L545.211 71.1036C544.625 71.1315 544.04 71.1702 543.458 71.2269C542.681 71.3138 542.189 71.3813 541.699 71.4605L540.847 69.323Z" fill="#B1B0B0"/>
<path d="M578.133 134.775C564.697 135.62 551.209 134.931 537.929 132.721C532.185 131.919 526.775 129.54 522.303 125.847C522.505 125.87 522.711 125.886 522.914 125.908C523.507 125.971 524.102 126.03 524.699 126.084C525.15 126.126 525.597 126.166 526.05 126.203C526.654 126.252 527.261 126.293 527.869 126.331C528.324 126.36 528.776 126.389 529.232 126.411C529.839 126.44 530.447 126.456 531.059 126.472C531.518 126.484 531.977 126.498 532.438 126.501C532.602 126.501 532.763 126.512 532.927 126.512C533.213 126.512 533.501 126.489 533.788 126.485C534.583 126.475 535.379 126.453 536.177 126.412C536.642 126.389 537.107 126.355 537.572 126.32C538.353 126.261 539.135 126.181 539.917 126.086C540.377 126.03 540.836 125.975 541.297 125.906C542.134 125.781 542.969 125.621 543.806 125.449C544.203 125.367 544.6 125.3 544.997 125.207C546.223 124.919 547.449 124.589 548.672 124.183C549.532 123.898 550.368 123.59 551.18 123.261C563.248 118.365 570.122 108.525 572.169 93.2905H572.225L572.241 92.822L572.31 92.2783H572.238C572.244 91.7463 572.247 91.2156 572.222 90.703C572.211 90.4743 572.181 90.2565 572.164 90.0315C572.13 89.5845 572.098 89.1362 572.041 88.7033C572.006 88.4386 571.954 88.1852 571.911 87.926C571.848 87.5456 571.789 87.1635 571.709 86.794C571.651 86.5271 571.578 86.2696 571.512 86.0081C571.422 85.6602 571.338 85.311 571.236 84.9729C571.156 84.7105 571.064 84.4571 570.976 84.2006C570.866 83.8774 570.756 83.5538 570.633 83.2392C570.533 82.9836 570.423 82.7351 570.314 82.4849C570.184 82.1824 570.053 81.8808 569.909 81.5847C569.79 81.3376 569.663 81.0959 569.537 80.8542C569.388 80.5697 569.237 80.2862 569.078 80.0089C568.943 79.7717 568.801 79.5386 568.658 79.3064C568.492 79.0363 568.324 78.7699 568.15 78.5075C567.998 78.2797 567.843 78.0547 567.685 77.8323C567.505 77.5782 567.322 77.3269 567.135 77.0784C566.969 76.8591 566.801 76.6421 566.63 76.4276C566.437 76.1861 566.241 75.9474 566.041 75.7115C565.864 75.5031 565.687 75.2965 565.507 75.0926C565.301 74.8613 565.092 74.634 564.881 74.4081C564.695 74.2087 564.509 74.0097 564.318 73.8144C564.104 73.5943 563.886 73.3787 563.667 73.1636C563.473 72.9736 563.28 72.7833 563.081 72.5969C562.856 72.3858 562.631 72.1792 562.406 71.9727C562.207 71.7926 562.009 71.6094 561.808 71.4325C561.577 71.2296 561.343 71.0315 561.11 70.8326C560.908 70.6607 560.705 70.4869 560.503 70.3181C560.263 70.1187 560.021 69.9252 559.779 69.7308C559.581 69.5705 559.383 69.4085 559.184 69.2514L559.102 69.1857L591.755 69.0957C592.052 69.5233 592.304 69.9617 592.571 70.3965C592.814 70.793 593.083 71.1837 593.302 71.5856C593.559 72.0591 593.767 72.542 593.993 73.0214C594.186 73.43 594.402 73.8338 594.572 74.246C594.773 74.7312 594.929 75.2218 595.102 75.7111C595.248 76.1247 595.417 76.5356 595.543 76.9511C595.695 77.4498 595.809 77.9507 595.936 78.4512C596.04 78.8599 596.164 79.2676 596.251 79.6763C596.363 80.1921 596.441 80.7066 596.531 81.2215C596.599 81.6139 596.684 82.0078 596.741 82.3989C596.822 82.9575 596.876 83.5102 596.933 84.0642C596.97 84.4058 597.023 84.751 597.05 85.0904C597.107 85.7417 597.14 86.3826 597.175 87.0231C597.187 87.2589 597.21 87.5002 597.22 87.7342C597.257 88.6047 597.278 89.463 597.288 90.3042C597.42 100.868 597.415 111.61 597.411 122C597.409 126.207 597.41 130.414 597.414 134.621C590.986 134.451 584.455 134.614 578.133 134.775Z" fill="#999999"/>
<path d="M564.805 137.254C555.643 137.406 546.49 136.628 537.485 134.931C531.333 134.062 525.547 131.49 520.782 127.504L515.773 122.868L522.556 123.615L522.824 125.297L523.008 125.097L523.159 123.674L532.46 124.255L532.934 126.516L532.967 124.265L533.766 124.241C534.531 124.231 535.299 124.21 536.068 124.17L537.41 124.08C538.157 124.024 538.905 123.945 539.654 123.855L540.972 123.684C541.768 123.566 542.563 123.412 543.359 123.249L544.49 123.02C545.652 122.747 546.813 122.434 547.971 122.051C548.784 121.781 549.574 121.491 550.342 121.18C561.598 116.613 568.011 107.394 569.945 92.9948L570 92.5897L569.994 92.2562C569.999 91.7697 570.003 91.2849 569.98 90.8159L572.17 90.035L569.926 90.2061C569.89 89.7348 569.863 89.3617 569.816 89.0003L568.305 83.4989L564.878 77.8355L557.797 71.023L552.717 67.0221L559.101 66.9389L592.936 66.8457L593.611 67.8138C593.863 68.1739 594.088 68.5452 594.311 68.9147L594.731 69.5921C594.925 69.8968 595.118 70.2024 595.287 70.5126C595.501 70.9064 595.687 71.3052 595.872 71.7044L596.226 72.4506C596.38 72.7621 596.531 73.0735 596.662 73.3891C596.827 73.7883 596.967 74.1907 597.105 74.5939L597.379 75.3618C597.495 75.6728 597.609 75.9838 597.705 76.2966C597.829 76.7017 597.93 77.1068 598.031 77.515L598.235 78.3022C598.316 78.6019 598.397 78.9022 598.46 79.2024C598.55 79.6241 598.623 80.0445 598.694 80.4649L598.978 82.0798C599.047 82.5546 599.096 83.0249 599.145 83.4948L596.991 84.481L599.225 84.2055L599.302 84.9C599.358 85.5486 599.392 86.1873 599.427 86.8255L599.477 87.6424C599.516 88.5353 599.537 89.4166 599.548 90.2803C599.679 100.787 599.675 111.471 599.671 121.809L599.678 136.936L597.364 136.875C590.949 136.705 584.467 136.87 578.199 137.029L578.142 134.778L578.167 137.029C573.753 137.141 569.291 137.254 564.805 137.254ZM578.05 132.53L578.142 134.778L578.083 132.53C583.664 132.389 589.41 132.243 595.17 132.33V122.004C595.174 111.489 595.178 100.825 595.048 90.3379C595.037 89.5188 595.017 88.6834 594.981 87.8359L597.186 87.0285L594.939 87.1486C594.903 86.478 594.872 85.8884 594.82 85.2907L594.707 84.309C594.628 83.5524 594.586 83.1411 594.527 82.7261L594.327 81.6126C594.2 80.8627 594.142 80.5108 594.065 80.1583L593.768 79.0124C593.583 78.2693 593.503 77.9417 593.403 77.6172L592.992 76.4672C592.742 75.7439 592.635 75.427 592.505 75.1138C592.412 74.8887 592.3 74.6637 592.19 74.4432L591.969 73.9872C591.643 73.2819 591.503 72.9727 591.339 72.6689C591.219 72.4493 591.08 72.2341 590.941 72.0181L590.666 71.5802L590.531 71.3551L565.115 71.4244L570.039 77.2674L572.741 82.4209C572.869 82.7477 572.984 83.0821 573.099 83.417L573.403 84.3243C573.503 84.6543 573.589 84.9927 573.673 85.3316L573.92 86.3218C573.997 86.6756 574.055 87.042 574.118 87.4047L574.284 88.4134C574.342 88.8545 574.378 89.3104 574.412 89.7668L574.435 90.0368H574.803L574.485 93.1096V93.3675L574.415 95.5454H574.119C571.634 110.576 564.397 120.337 552.038 125.351C551.18 125.699 550.298 126.023 549.392 126.323C548.104 126.75 546.814 127.099 545.521 127.403L544.669 127.58C543.393 127.839 542.517 128.007 541.64 128.138L540.25 128.318C539.382 128.422 538.568 128.506 537.753 128.568L536.303 128.664C535.475 128.706 534.651 128.729 533.827 128.74L532.93 128.766L531.691 128.741C533.882 129.488 536.122 130.082 538.395 130.521C551.495 132.69 564.798 133.364 578.05 132.53Z" fill="#B1B0B0"/>
<path d="M669.834 520.319C669.709 520.508 669.6 520.72 669.485 520.923C669.375 521.116 669.252 521.291 669.152 521.497H648.45C645.595 521.371 642.767 520.884 640.034 520.047L639.228 519.838C613.375 513.582 597.46 492.023 597.697 463.567C598.355 384.124 598.248 303.346 598.144 225.226C598.104 195.514 598.078 165.8 598.065 136.086V135.565C598.057 131.189 598.056 126.814 598.061 122.438C598.065 112.058 598.069 101.322 597.939 90.7655C598.181 84.1076 596.769 77.4937 593.827 71.5158C593.327 70.5981 592.776 69.7095 592.175 68.854C591.769 67.8143 591.334 66.8106 590.87 65.8429C590.712 65.513 590.535 65.2069 590.372 64.8846C590.047 64.2464 589.724 63.6055 589.376 62.9974C589.166 62.632 588.939 62.2895 588.72 61.9343C588.393 61.4005 588.069 60.8627 587.722 60.3523C587.477 59.9922 587.217 59.6492 586.963 59.2986C586.62 58.8265 586.28 58.3535 585.923 57.8989C585.648 57.5509 585.359 57.221 585.076 56.8853C584.716 56.4595 584.356 56.0324 583.985 55.625C583.684 55.296 583.373 54.981 583.063 54.6632C582.687 54.277 582.311 53.8908 581.923 53.5209C581.599 53.2112 581.266 52.9133 580.932 52.6149C580.54 52.262 580.146 51.9114 579.742 51.5734C579.399 51.2848 579.048 51.0049 578.697 50.7263C578.288 50.4027 577.877 50.0831 577.459 49.773C577.096 49.503 576.73 49.2394 576.361 48.9822C575.939 48.6861 575.513 48.3953 575.083 48.1099C574.703 47.8594 574.321 47.613 573.935 47.3709C573.502 47.1009 573.066 46.835 572.625 46.5733C572.23 46.3389 571.833 46.1071 571.432 45.8811C570.99 45.6322 570.544 45.3901 570.096 45.1511C569.686 44.9323 569.277 44.714 568.862 44.503C568.415 44.2752 567.962 44.0529 567.512 43.835C567.086 43.628 566.661 43.4209 566.23 43.2211C565.788 43.0154 565.341 42.816 564.895 42.6189C564.448 42.4218 564.002 42.2197 563.551 42.0275C563.122 41.8443 562.689 41.6674 562.257 41.4905C561.783 41.2956 561.309 41.099 560.833 40.9099C560.443 40.756 560.051 40.6084 559.662 40.4598C559.136 40.2577 558.61 40.0548 558.082 39.8572L557.979 39.8162L558.911 39.7689C561.36 39.6447 563.891 39.516 566.373 39.5151C596.439 39.5085 626.497 39.5259 656.547 39.5673C729.404 39.6357 804.743 39.7095 878.839 39.25H879.157C886.169 39.2925 893.101 40.7355 899.548 43.4941C905.994 46.2528 911.825 50.2716 916.697 55.3145C927.028 65.6031 932.867 79.5629 932.938 94.1434C932.262 174.516 932.428 256.241 932.586 335.274C932.646 365.074 932.692 394.874 932.723 424.674C931.4 424.696 930.078 424.72 928.757 424.749C925.656 424.811 922.449 424.876 919.296 424.877C846.988 424.9 774.68 424.915 702.372 424.922L673.446 424.927C673.028 424.906 672.609 424.895 672.191 424.882C671.303 424.875 670.416 424.819 669.535 424.713C662.214 423.402 654.675 424.095 647.715 426.718C640.756 429.342 634.635 433.799 630.002 439.617C629.811 439.864 629.623 440.112 629.437 440.366C628.448 441.715 627.54 443.122 626.718 444.579C625.877 446.035 625.119 447.538 624.448 449.08C620.493 457.768 619.57 467.533 621.826 476.809C624.082 486.084 629.387 494.334 636.89 500.236L638.19 501.451L638.313 501.567L638.318 501.571L638.19 501.451L641.451 502.382L639.083 502.337C643.775 506.795 649.872 509.482 656.328 509.937C658.008 510.121 659.699 510.261 661.395 510.369C662.005 510.408 662.617 510.424 663.228 510.455C664.317 510.51 665.406 510.572 666.496 510.607L666.7 510.611C670.025 510.713 673.343 510.736 676.606 510.757C676.909 510.757 677.211 510.765 677.514 510.766C679.723 510.781 681.931 510.803 684.137 510.847L684.127 510.86C683.741 511.27 683.322 511.648 682.875 511.99C682.8 512.049 682.727 512.109 682.65 512.166C682.213 512.487 681.758 512.783 681.288 513.053L680.995 513.219C680.517 513.484 680.025 513.736 679.521 513.975L679.206 514.121C678.715 514.346 678.219 514.571 677.715 514.796L677.648 514.826C677.063 515.085 676.478 515.35 675.893 515.624C675.648 515.739 675.401 515.853 675.159 515.974C675.002 516.052 674.851 516.14 674.695 516.221C674.445 516.352 674.193 516.482 673.948 516.623C673.784 516.717 673.629 516.824 673.469 516.923C673.24 517.064 673.009 517.203 672.788 517.357C672.628 517.468 672.478 517.594 672.322 517.713C672.113 517.871 671.901 518.028 671.701 518.2C671.548 518.333 671.407 518.484 671.261 518.626C671.074 518.806 670.884 518.983 670.708 519.179C670.567 519.339 670.438 519.518 670.303 519.689C670.148 519.892 669.983 520.094 669.834 520.319Z" fill="#D4D4D4"/>
<path d="M669.149 523.746H648.447C645.402 523.626 642.384 523.114 639.469 522.224L638.662 522.015C611.772 515.509 595.199 493.102 595.444 463.549C596.102 384.16 595.994 303.429 595.89 225.357C595.851 195.516 595.824 165.759 595.812 136.086L595.807 122.438C595.811 111.93 595.815 101.273 595.686 90.7934C595.927 84.505 594.61 78.2544 591.851 72.5982C591.39 71.7528 590.882 70.934 590.329 70.1457L590.076 69.6731C589.69 68.6856 589.277 67.7322 588.836 66.8128L588.362 65.9041C588.008 65.2073 587.725 64.6483 587.42 64.1168L586.799 63.1113C586.403 62.465 586.138 62.0311 585.856 61.6143L585.02 60.458C584.736 60.0647 584.452 59.6713 584.154 59.295L583.573 58.5929C582.969 57.8795 582.652 57.5023 582.322 57.1414L581.608 56.3942C581.092 55.864 580.735 55.4981 580.367 55.147L579.455 54.3112C579.054 53.9511 578.679 53.6172 578.296 53.2958L577.299 52.4888C576.909 52.1796 576.516 51.874 576.117 51.5778L567.84 46.5058L557.295 41.9635L547.033 38.1599L558.795 37.5194C564.241 37.2426 569.857 37.262 575.378 37.262C602.437 37.262 629.49 37.2797 656.535 37.3151H658.028C730.402 37.383 805.236 37.4528 878.823 37C886.187 37.008 893.474 38.4928 900.254 41.3665C907.034 44.2402 913.169 48.4445 918.295 53.7306C929.047 64.4462 935.12 78.9819 935.187 94.1614C934.515 174.471 934.677 256.138 934.835 335.116C934.895 365.07 934.955 394.872 934.973 424.672V426.887L928.816 426.998C925.601 427.062 922.421 427.126 919.295 427.127L673.443 427.177L672.194 427.132C671.201 427.123 670.209 427.059 669.223 426.941C662.294 425.689 655.156 426.334 648.564 428.808C641.971 431.282 636.171 435.493 631.777 440.995L631.243 441.703C630.307 442.98 629.448 444.312 628.671 445.691C627.871 447.073 627.151 448.499 626.513 449.963C622.76 458.207 621.884 467.472 624.025 476.273C626.167 485.075 631.201 492.902 638.322 498.5L639.324 499.432L658.693 504.958L646.139 504.718C649.402 506.346 652.938 507.355 656.569 507.695C658.216 507.875 659.873 508.01 661.535 508.119L664.01 508.237C664.861 508.282 665.711 508.327 666.563 508.353C670.071 508.458 673.371 508.481 676.615 508.501L677.092 508.507C679.743 508.525 681.961 508.548 684.178 508.593L689.18 508.693L685.775 512.381C685.306 512.883 684.797 513.344 684.252 513.762C683.666 514.213 683.051 514.625 682.411 514.996C681.563 515.47 681.03 515.744 680.481 516.004L676.164 517.981L674.694 516.215L675.741 518.207L675.07 518.567L673.468 516.917L674.652 518.83L674.07 519.199L672.321 517.707L673.682 519.499L673.174 519.894L671.26 518.62L672.825 520.237L672.388 520.671L670.305 519.684L672.076 521.072L670.616 523.377L669.149 523.746ZM594.17 67.7836C594.759 68.64 595.303 69.5264 595.8 70.4391C598.929 76.7351 600.436 83.7122 600.187 90.738C600.316 101.237 600.312 111.914 600.308 122.244L600.313 136.084C600.313 165.802 600.339 195.515 600.391 225.226C600.495 303.436 600.602 384.177 599.944 463.588C599.719 490.941 614.972 511.658 639.754 517.653L640.594 517.87C643.145 518.653 645.783 519.117 648.447 519.249H667.846L667.955 519.077C668.113 518.838 668.284 518.618 668.457 518.399C668.762 518.001 668.892 517.835 669.029 517.681C669.212 517.476 669.405 517.287 669.6 517.099L670.226 516.5C670.429 516.324 670.641 516.161 670.856 516L674.796 513.653C675.316 513.408 675.768 513.203 676.2 513.007C672.806 512.983 669.719 512.956 666.63 512.861C665.541 512.829 664.66 512.783 663.778 512.737L661.25 512.615C659.52 512.506 657.795 512.362 656.081 512.174C649.114 511.668 642.54 508.753 637.488 503.928L635.318 501.855C633.782 500.583 632.322 499.224 630.945 497.782L629.929 496.837L630.109 496.888C624.165 490.437 620.26 482.374 618.884 473.711C617.508 465.048 618.722 456.172 622.375 448.197C623.08 446.578 623.876 445 624.76 443.471C625.626 441.936 626.583 440.454 627.626 439.034L628.222 438.244C633.094 432.108 639.535 427.403 646.862 424.63C654.19 421.857 662.132 421.118 669.845 422.491C670.636 422.584 671.432 422.633 672.228 422.638L673.56 422.683L919.292 422.627C922.388 422.627 925.538 422.562 928.587 422.501L930.467 422.465C930.448 393.404 930.403 364.342 930.332 335.278C930.174 256.136 930.011 174.457 930.684 94.1222C930.61 80.1408 925.005 66.7571 915.094 56.8952C910.43 52.0655 904.848 48.2159 898.677 45.572C892.505 42.9281 885.868 41.5433 879.154 41.4986C805.25 41.9536 730.404 41.8839 658.024 41.8159H656.542C627.156 41.7859 597.775 41.7684 568.4 41.7633L576.321 46.2304C576.769 46.5259 577.213 46.8287 577.653 47.1386L578.797 47.9632C579.235 48.2877 579.665 48.6217 580.092 48.9601L581.187 49.8468C581.609 50.201 582.023 50.5669 582.435 50.9383L583.473 51.8902C583.881 52.2795 584.277 52.6851 584.673 53.0915L585.642 54.1042C586.013 54.5093 586.369 54.931 586.726 55.3532L587.685 56.5009C588.021 56.9271 588.344 57.3722 588.667 57.8178L587.195 59.6182L589.006 58.2832L589.583 59.088C589.902 59.5601 590.205 60.0534 590.507 60.5472L588.951 62.3056L590.853 61.1039L591.325 61.8763C591.666 62.4726 591.986 63.0978 592.304 63.7216L590.571 65.2654L592.555 64.2028L592.898 64.8698C593.347 65.8108 593.771 66.782 594.17 67.7836Z" fill="#B1B0B0"/>
<path d="M680.66 476.82C680.891 475.19 681.027 473.548 681.068 471.902C681.395 469.431 681.169 466.918 680.405 464.545C679.641 462.173 678.358 460 676.651 458.184C676.301 457.689 675.95 457.186 675.604 456.679C675.508 456.539 675.418 456.395 675.324 456.254C675.073 455.879 674.825 455.502 674.589 455.119C674.471 454.929 674.364 454.735 674.254 454.543C674.054 454.202 673.859 453.86 673.68 453.512C673.568 453.294 673.47 453.072 673.368 452.852C673.265 452.632 673.176 452.412 673.086 452.191L673.237 452.188L698.498 451.773C698.789 452.254 699.033 452.747 699.302 453.234C699.671 453.901 700.061 454.563 700.39 455.241C700.664 455.808 700.885 456.388 701.13 456.962C701.408 457.609 701.711 458.251 701.954 458.905C702.192 459.55 702.373 460.207 702.578 460.858C702.765 461.455 702.983 462.047 703.14 462.649C703.343 463.414 703.483 464.188 703.639 464.96C703.741 465.458 703.873 465.95 703.954 466.452C704.115 467.427 704.21 468.408 704.299 469.389C704.327 469.691 704.381 469.99 704.402 470.292C704.711 476.384 703.813 482.476 701.757 488.219C699.701 493.961 696.529 499.24 692.424 503.751C692.058 504.169 691.65 504.566 691.268 504.976C690.675 505.615 690.094 506.26 689.462 506.88C688.424 507.893 687.335 508.878 686.196 509.834C683.377 509.767 680.553 509.751 677.728 509.733C674.457 509.713 671.13 509.69 667.799 509.59L667.546 509.585C666.732 509.56 665.919 509.509 665.105 509.472C662.506 509.356 659.91 509.198 657.345 508.92C656.553 508.834 655.781 508.724 655.024 508.595C654.776 508.553 654.539 508.497 654.295 508.45C653.794 508.354 653.293 508.257 652.807 508.141C652.527 508.075 652.259 507.995 651.984 507.922C651.55 507.806 651.116 507.691 650.696 507.559C650.414 507.469 650.142 507.371 649.865 507.275C649.47 507.14 649.077 507 648.695 506.849C648.42 506.74 648.152 506.624 647.885 506.504C647.518 506.345 647.155 506.183 646.802 506.009C646.54 505.881 646.283 505.746 646.028 505.61C645.685 505.427 645.347 505.238 645.016 505.041C644.77 504.895 644.528 504.745 644.289 504.591C643.966 504.383 643.651 504.168 643.343 503.947C643.115 503.783 642.888 503.617 642.668 503.446C642.46 503.284 642.26 503.113 642.057 502.945L641.453 502.385C642.589 502.368 643.724 502.367 644.859 502.366C651.021 502.756 657.2 501.922 663.038 499.911C664.633 499.256 666.172 498.472 667.639 497.567C671.249 495.332 674.299 492.3 676.556 488.704C678.813 485.108 680.217 481.043 680.66 476.82Z" fill="#999999"/>
<path d="M686.987 512.097L686.141 512.077C683.392 512.013 680.638 511.996 677.884 511.978C674.423 511.957 671.077 511.933 667.728 511.833L665.002 511.714C662.355 511.596 659.711 511.434 657.1 511.151C656.262 511.061 655.445 510.944 654.644 510.807L654.12 510.705C653.334 510.551 652.8 510.448 652.283 510.324L651.661 510.16C650.926 509.963 650.467 509.84 650.021 509.7L649.336 509.469C648.7 509.248 648.275 509.098 647.862 508.935L647.097 508.612C646.585 508.389 646.19 508.213 645.806 508.024L644.964 507.59C644.589 507.39 644.22 507.185 643.859 506.969L643.063 506.474C642.711 506.247 642.366 506.011 642.028 505.768L639.917 504.028L635.793 500.21L641.413 500.127C642.559 500.11 643.705 500.108 644.85 500.107C650.72 500.484 656.607 499.707 662.178 497.82C663.66 497.211 665.09 496.483 666.454 495.642C669.786 493.584 672.599 490.786 674.676 487.466C676.753 484.146 678.037 480.393 678.431 476.496C678.649 474.952 678.778 473.394 678.817 471.835C679.115 469.606 678.909 467.339 678.216 465.199C677.523 463.06 676.359 461.103 674.811 459.472L673.452 457.499C673.186 457.101 672.923 456.701 672.673 456.296L672.416 455.858C672.09 455.298 671.875 454.92 671.678 454.537L669.771 450.036L673.047 449.935L699.753 449.496L700.422 450.603C700.633 450.951 700.823 451.306 701.012 451.661L701.547 452.635C701.849 453.171 702.149 453.708 702.413 454.256C702.617 454.677 702.795 455.103 702.971 455.53L703.432 456.611C703.653 457.111 703.873 457.612 704.062 458.121C704.247 458.62 704.401 459.124 704.554 459.628L704.905 460.74C705.051 461.182 705.196 461.624 705.315 462.071C705.486 462.719 705.617 463.372 705.747 464.026L705.958 465.029C706.038 465.379 706.116 465.73 706.175 466.083C706.344 467.112 706.445 468.148 706.54 469.183L706.646 470.134C706.982 476.522 706.047 482.912 703.897 488.936C701.746 494.96 698.423 500.498 694.119 505.229C693.867 505.516 693.601 505.793 693.333 506.069L692.568 506.879C692.069 507.419 691.569 507.959 691.035 508.483C689.953 509.54 688.821 510.564 687.638 511.557L686.987 512.097ZM649.109 504.575L649.521 504.751C649.873 504.89 650.235 505.016 650.599 505.142L651.364 505.405C651.749 505.525 652.146 505.63 652.544 505.737L653.325 505.946C653.778 506.054 654.246 506.143 654.715 506.233L655.02 508.589L655.398 506.37C656.11 506.492 656.838 506.595 657.583 506.676C660.101 506.949 662.65 507.103 665.202 507.216L667.612 507.327C671.175 507.432 674.484 507.455 677.739 507.474C680.388 507.491 682.897 507.507 685.388 507.557C686.253 506.81 687.086 506.045 687.887 505.261C688.363 504.795 688.811 504.308 689.259 503.821L690.097 502.932C690.312 502.71 690.527 502.488 690.727 502.257C694.639 497.971 697.664 492.952 699.625 487.49C701.586 482.028 702.445 476.232 702.152 470.436L702.053 469.584C701.969 468.655 701.881 467.727 701.729 466.806C701.684 466.544 701.625 466.283 701.566 466.022L701.328 464.894C701.217 464.332 701.107 463.769 700.96 463.214C700.865 462.854 700.746 462.502 700.628 462.147L700.242 460.924C700.116 460.507 699.991 460.089 699.837 459.677C699.68 459.254 699.495 458.839 699.31 458.422L698.805 457.241C698.663 456.896 698.522 456.551 698.358 456.212C698.133 455.748 697.876 455.293 697.619 454.837L697.176 454.036L676.782 454.375C676.917 454.583 677.052 454.79 677.192 454.997L675.602 456.673L677.461 455.405L678.489 456.882C680.388 458.943 681.802 461.402 682.629 464.08C683.456 466.758 683.674 469.586 683.268 472.359C683.248 473.957 683.12 475.553 682.885 477.134C682.384 481.68 680.857 486.054 678.419 489.924C675.981 493.795 672.696 497.061 668.811 499.477C667.24 500.445 665.592 501.284 663.885 501.986C659.165 503.766 654.153 504.644 649.109 504.575ZM675.255 454.4L674.585 455.113L675.753 454.393L675.255 454.4Z" fill="#B1B0B0"/>
<path d="M680.128 471.358L672.919 471.333C665.805 471.31 658.691 471.278 651.578 471.235L650.945 471.232C647.499 471.222 644.245 471.213 643.091 467.19C642.622 465.499 642.634 463.71 643.127 462.025C643.619 460.341 644.573 458.827 645.879 457.654C646.406 457.094 646.943 456.586 647.485 456.105C647.655 455.954 647.828 455.816 647.999 455.672C648.387 455.349 648.779 455.044 649.175 454.756C649.363 454.621 649.55 454.484 649.74 454.356C650.185 454.057 650.636 453.783 651.091 453.527C651.217 453.457 651.34 453.375 651.467 453.307C652.03 453.008 652.603 452.745 653.183 452.507C653.394 452.42 653.61 452.348 653.824 452.269C654.215 452.125 654.608 451.991 655.005 451.872C655.256 451.797 655.508 451.726 655.762 451.661C656.154 451.56 656.552 451.474 656.953 451.396C657.191 451.351 657.425 451.295 657.665 451.256C658.262 451.159 658.867 451.084 659.48 451.031C659.739 451.009 660.004 451.002 660.266 450.986C660.672 450.963 661.082 450.945 661.496 450.941C661.782 450.937 662.071 450.941 662.36 450.943C662.829 450.95 663.303 450.967 663.783 450.994C664.015 451.007 664.246 451.014 664.481 451.031C665.207 451.085 665.942 451.155 666.69 451.247L666.936 451.281C667.695 451.379 668.464 451.493 669.244 451.624L669.368 451.645C670.215 451.79 671.075 451.953 671.949 452.132C672.069 452.454 672.225 452.762 672.366 453.074C672.474 453.314 672.567 453.56 672.686 453.794C672.873 454.166 673.084 454.527 673.292 454.889C673.411 455.095 673.517 455.307 673.643 455.511C673.886 455.91 674.145 456.299 674.404 456.689C674.509 456.847 674.608 457.009 674.714 457.165C675.081 457.705 675.454 458.236 675.825 458.764C676.167 459.249 676.506 459.731 676.836 460.213C676.908 460.318 676.971 460.424 677.044 460.528C677.303 460.91 677.56 461.293 677.801 461.678C677.866 461.781 677.921 461.886 677.985 461.99C678.224 462.382 678.459 462.775 678.673 463.175C678.718 463.262 678.756 463.352 678.801 463.439C679.017 463.86 679.225 464.283 679.403 464.717C679.436 464.797 679.459 464.881 679.49 464.962C679.667 465.405 679.82 465.859 679.947 466.319C679.973 466.414 679.985 466.514 680.008 466.609C680.122 467.065 680.208 467.527 680.265 467.993C680.281 468.138 680.278 468.292 680.289 468.439C680.325 468.871 680.336 469.305 680.322 469.738C680.311 470.003 680.268 470.278 680.237 470.549C680.21 470.817 680.176 471.084 680.128 471.358Z" fill="#B1B0B0"/>
<path d="M682.009 473.611L672.901 473.579C665.784 473.556 658.668 473.524 651.552 473.481L650.924 473.478C647.386 473.468 642.537 473.454 640.918 467.807C640.34 465.742 640.343 463.557 640.927 461.493C641.511 459.429 642.653 457.566 644.228 456.11C644.804 455.497 645.389 454.943 645.984 454.418L646.421 454.047C646.978 453.583 647.411 453.245 647.849 452.929L648.479 452.484C648.974 452.151 649.476 451.845 649.984 451.56L650.406 451.316C651.029 450.986 651.669 450.688 652.323 450.422L652.863 450.218C653.477 449.993 653.915 449.844 654.358 449.711L655.199 449.477C655.633 449.365 656.074 449.27 656.517 449.184L657.301 449.03C657.954 448.925 658.616 448.843 659.286 448.786L659.899 448.749C660.577 448.713 661.017 448.693 661.464 448.688L662.388 448.69C662.889 448.697 663.394 448.715 663.904 448.743L664.64 448.783C665.405 448.84 666.177 448.913 666.963 449.008C668.008 449.143 668.805 449.262 669.618 449.4C670.617 449.57 671.501 449.738 672.4 449.923L673.619 450.173L674.552 452.458C674.844 453.076 675.011 453.364 675.178 453.653L675.403 454.055C675.788 454.706 676.029 455.069 676.271 455.433L674.711 457.161L676.572 455.896L678.688 458.937C679.177 459.668 679.448 460.072 679.703 460.48C680.163 461.245 680.42 461.674 680.654 462.112C681.043 462.884 681.277 463.366 681.48 463.859C681.724 464.472 681.937 465.098 682.116 465.733C682.282 466.391 682.408 467.059 682.495 467.733L682.528 468.273C682.571 468.79 682.583 469.31 682.566 469.829C682.554 470.089 682.524 470.349 682.492 470.609C682.435 471.105 682.396 471.42 682.34 471.741L682.009 473.611ZM680.124 469.728V469.782L680.313 469.737L680.124 469.728ZM647.475 456.1L648.969 457.783C648.476 458.22 647.988 458.68 647.509 459.19C646.477 460.082 645.717 461.247 645.316 462.552C644.915 463.856 644.891 465.247 645.244 466.565C645.851 468.68 646.939 468.965 650.94 468.977L651.579 468.979C658.695 469.031 665.807 469.064 672.916 469.077L678.064 469.095C678.058 468.931 678.048 468.767 678.036 468.605C678.004 468.11 677.929 467.619 677.811 467.137C677.702 466.674 677.559 466.219 677.383 465.778C677.211 465.329 677.012 464.891 676.789 464.466C676.484 463.869 676.269 463.514 676.053 463.16L672.515 457.926C672.242 457.514 671.969 457.103 671.712 456.682L671.449 456.22C671.061 455.541 670.853 455.177 670.665 454.803L670.399 454.218L670.5 454.14C669.987 454.041 669.48 453.949 668.978 453.863C668.107 453.715 667.368 453.607 666.638 453.512C665.692 453.392 664.993 453.326 664.303 453.275L663.649 453.24C663.198 453.215 662.754 453.2 662.315 453.195L661.515 453.193C661.132 453.198 660.755 453.215 660.38 453.238L659.66 453.278C659.104 453.325 658.555 453.392 658.014 453.48L657.373 453.607C657.017 453.677 656.661 453.753 656.31 453.843L655.635 454.032C655.285 454.136 654.937 454.257 654.591 454.383L653.17 452.51L654.025 454.592C653.514 454.802 653.009 455.033 652.512 455.297C651.777 455.719 651.377 455.962 650.982 456.227L650.544 456.537C650.125 456.839 649.775 457.113 649.428 457.403L647.475 456.1ZM671.759 453.01L671.723 453.184L672.229 452.79L671.759 453.01Z" fill="#B1B0B0"/>
<path d="M672.366 451.185C662.879 449.21 653.022 448.556 645.131 456.959C643.698 458.255 642.655 459.925 642.121 461.782C641.586 463.639 641.582 465.608 642.108 467.467C643.471 472.22 647.435 472.232 650.93 472.242L651.56 472.245C658.482 472.295 665.405 472.328 672.327 472.342L680.023 472.369C680.011 472.693 679.991 473.011 679.972 473.331C679.948 473.727 679.927 474.128 679.894 474.517C679.859 474.917 679.808 475.306 679.761 475.697C679.716 476.078 679.676 476.463 679.621 476.833C679.563 477.218 679.491 477.592 679.422 477.969C679.355 478.333 679.295 478.701 679.218 479.059C679.139 479.429 679.043 479.788 678.952 480.15C678.865 480.498 678.784 480.85 678.687 481.19C678.585 481.546 678.467 481.891 678.354 482.239C678.247 482.569 678.146 482.904 678.029 483.226C677.905 483.568 677.764 483.896 677.629 484.228C677.502 484.543 677.381 484.862 677.244 485.168C677.098 485.492 676.936 485.802 676.78 486.117C676.632 486.416 676.491 486.721 676.333 487.012C676.166 487.319 675.982 487.612 675.805 487.912C675.636 488.195 675.475 488.483 675.297 488.758C675.108 489.05 674.902 489.326 674.702 489.609C674.515 489.874 674.335 490.145 674.139 490.402C673.927 490.678 673.697 490.942 673.474 491.207C673.269 491.453 673.071 491.705 672.857 491.943C672.621 492.205 672.367 492.451 672.119 492.703C671.898 492.929 671.685 493.163 671.454 493.381C671.194 493.628 670.914 493.857 670.644 494.093C670.406 494.3 670.176 494.516 669.929 494.715C669.641 494.948 669.333 495.165 669.033 495.386C668.783 495.571 668.544 495.764 668.286 495.941C667.954 496.17 667.603 496.38 667.258 496.596C667.012 496.75 666.776 496.911 666.524 497.06C666.14 497.285 665.736 497.489 665.338 497.698C665.104 497.821 664.88 497.954 664.641 498.071C663.994 498.389 663.329 498.689 662.644 498.971C656.926 500.927 650.879 501.736 644.848 501.351C643.356 501.351 641.863 501.354 640.371 501.391L639.799 500.86L640.376 501.395L638.302 499.472L638.279 499.452C630.886 493.718 625.648 485.654 623.416 476.568C621.184 467.482 622.09 457.908 625.986 449.402C626.431 448.371 626.915 447.377 627.426 446.402C627.592 446.087 627.775 445.789 627.947 445.48C628.307 444.835 628.67 444.194 629.057 443.577C629.277 443.228 629.51 442.893 629.738 442.553C630.108 442.001 630.484 441.455 630.877 440.927C631.13 440.588 631.391 440.258 631.653 439.928C632.054 439.425 632.464 438.932 632.885 438.451C633.159 438.14 633.436 437.832 633.718 437.529C634.162 437.055 634.621 436.597 635.085 436.147C635.368 435.877 635.648 435.6 635.937 435.337C636.451 434.871 636.983 434.427 637.52 433.99C637.782 433.777 638.036 433.555 638.303 433.35C638.99 432.822 639.698 432.323 640.419 431.843C640.554 431.753 640.68 431.654 640.815 431.566C641.693 430.996 642.594 430.463 643.518 429.968C643.676 429.883 643.842 429.812 644.001 429.729C644.759 429.335 645.527 428.959 646.313 428.614C646.612 428.483 646.92 428.369 647.223 428.245C647.887 427.975 648.556 427.711 649.239 427.474C649.59 427.352 649.948 427.242 650.304 427.129C650.958 426.923 651.618 426.728 652.287 426.553C652.666 426.454 653.048 426.361 653.431 426.272C654.102 426.117 654.78 425.978 655.464 425.855C655.852 425.785 656.24 425.714 656.632 425.655C657.344 425.546 658.066 425.462 658.792 425.388C659.166 425.349 659.537 425.303 659.915 425.274C660.725 425.211 661.546 425.181 662.37 425.161C662.672 425.154 662.969 425.133 663.273 425.131C664.108 425.127 664.956 425.165 665.805 425.205C666.145 425.221 666.48 425.218 666.821 425.241C668.012 425.322 669.214 425.443 670.428 425.611C671.354 425.723 672.286 425.783 673.219 425.791C673.497 425.798 673.785 425.809 674.071 425.82C674.096 425.98 674.15 426.114 674.185 426.264C674.228 426.445 674.267 426.63 674.323 426.799C674.393 426.997 674.473 427.191 674.565 427.38C674.635 427.531 674.7 427.687 674.78 427.827C674.884 427.998 674.997 428.163 675.118 428.322C675.208 428.446 675.294 428.577 675.394 428.692C675.526 428.844 675.672 428.982 675.816 429.12C675.922 429.221 676.022 429.328 676.132 429.422C676.29 429.557 676.459 429.675 676.627 429.796C676.74 429.877 676.847 429.965 676.964 430.041C677.148 430.161 677.34 430.27 677.531 430.379C677.642 430.443 677.749 430.511 677.862 430.572C678.076 430.687 678.293 430.794 678.511 430.9C678.606 430.945 678.698 430.997 678.793 431.041C679.102 431.188 679.411 431.329 679.716 431.467L680.324 431.746C681.384 432.237 682.403 432.766 683.38 433.334C683.695 433.514 683.978 433.726 684.284 433.915C684.932 434.32 685.586 434.717 686.198 435.156C686.519 435.386 686.81 435.645 687.12 435.886C687.683 436.32 688.251 436.748 688.781 437.217C689.073 437.476 689.338 437.763 689.621 438.032C690.133 438.519 690.649 439 691.129 439.521C691.391 439.806 691.628 440.118 691.88 440.413C692.344 440.953 692.81 441.493 693.242 442.069C693.488 442.397 693.709 442.752 693.944 443.092C694.344 443.668 694.746 444.241 695.114 444.85C695.367 445.266 695.595 445.71 695.834 446.142C696.146 446.703 696.462 447.26 696.751 447.848C697.04 448.436 697.295 449.045 697.558 449.655C697.718 450.023 697.881 450.386 698.033 450.764L672.366 451.185Z" fill="#AEAEAE"/>
<path d="M639.515 503.658L638.848 503.04L636.778 501.119C629.02 495.081 623.53 486.6 621.197 477.05C618.864 467.501 619.826 457.443 623.926 448.508C624.394 447.424 624.902 446.376 625.439 445.355L625.803 444.703C626.365 443.703 626.748 443.028 627.157 442.378L627.697 441.558C628.264 440.715 628.661 440.138 629.076 439.581L629.895 438.526C630.319 437.993 630.753 437.473 631.197 436.964L632.079 435.99C632.549 435.487 633.033 435.002 633.526 434.527L634.426 433.669C634.97 433.174 635.533 432.704 636.102 432.242L636.932 431.567C637.659 431.007 638.408 430.479 639.17 429.97L639.591 429.678C640.521 429.075 641.475 428.511 642.453 427.986L642.963 427.732C643.764 427.316 644.577 426.918 645.409 426.553L646.064 426.283C647.072 425.873 647.779 425.596 648.5 425.346L649.418 425.047C650.315 424.764 651.011 424.559 651.717 424.372L652.923 424.076C653.629 423.913 654.343 423.766 655.064 423.637L656.292 423.426C657.04 423.312 657.799 423.224 658.561 423.146L659.739 423.027C660.588 422.961 661.449 422.929 662.314 422.908L663.259 422.877C664.132 422.873 665.02 422.912 665.908 422.954L666.97 422.992C668.213 423.077 669.467 423.205 670.734 423.379C671.571 423.478 672.412 423.531 673.255 423.536L675.84 423.63L676.917 426.97L677.894 427.933L681.262 429.697C682.394 430.221 683.472 430.783 684.509 431.385C684.734 431.514 684.946 431.655 685.158 431.796L684.487 434.038L685.673 432.126C686.298 432.514 686.923 432.902 687.512 433.326C687.743 433.492 687.962 433.67 688.181 433.849L687.121 435.883L688.735 434.286C689.258 434.691 689.78 435.096 690.272 435.528C690.485 435.716 690.687 435.917 690.887 436.117L689.622 438.029L691.356 436.572C691.843 437.035 692.329 437.499 692.785 437.995C692.976 438.202 693.157 438.421 693.337 438.641L691.995 440.544L693.705 439.079C694.163 439.614 694.619 440.149 695.045 440.718C695.225 440.958 695.395 441.21 695.563 441.463L693.946 443.089L695.895 441.951C696.287 442.516 696.678 443.082 697.042 443.679C697.235 443.998 697.416 444.331 697.596 444.665L695.837 446.139L697.935 445.284C698.222 445.799 698.508 446.315 698.773 446.855C699.039 447.395 699.284 447.965 699.527 448.532L698.018 449.678V449.785L699.741 449.03L701.341 452.96L672.154 453.44L671.909 453.389C661.7 451.263 653.518 451.318 646.774 458.5C645.613 459.514 644.763 460.836 644.32 462.312C643.878 463.789 643.861 465.36 644.273 466.846C645.086 469.681 646.929 469.98 650.94 469.991L651.573 469.994C658.498 470.045 665.42 470.077 672.337 470.091L682.363 470.127L682.028 475.719L679.733 475.973L681.968 476.231L681.685 478.121L679.375 478.245L681.591 478.638L681.201 480.451L678.888 480.424L681.074 480.96L680.579 482.686L678.269 482.513L680.414 483.195L679.817 484.832L677.527 484.493L679.617 485.326L678.917 486.881L676.657 486.375L678.682 487.359L677.881 488.831L675.657 488.163L677.6 489.297L676.697 490.687L674.532 489.854L676.381 491.136L675.38 492.437L673.282 491.439L675.025 492.862L673.925 494.078L671.906 492.923L673.532 494.48L672.342 495.599L670.407 494.302L671.905 495.982L671.346 496.462C671.109 496.654 670.86 496.837 670.611 497.019L668.776 495.578L670.141 497.368L669.564 497.791C669.285 497.984 668.992 498.166 668.7 498.347L666.99 496.767L668.216 498.654L667.664 499C667.326 499.197 666.974 499.382 666.621 499.565L665.065 497.845L666.152 499.815L665.638 500.087C664.948 500.427 664.236 500.748 663.502 501.048C656.043 503.353 648.216 504.23 640.431 503.635L639.515 503.658ZM640.415 431.84L641.663 433.713C640.985 434.163 640.32 434.633 639.674 435.13L639.244 435.481C638.433 436.144 637.932 436.561 637.448 437.001L636.813 437.603C636.209 438.188 635.777 438.618 635.359 439.065L634.574 439.933C634.177 440.386 633.79 440.85 633.413 441.326L632.681 442.268C632.31 442.767 631.955 443.282 631.606 443.804L630.962 444.771C630.595 445.356 630.251 445.962 629.911 446.572L629.416 447.443C628.932 448.367 628.471 449.312 628.05 450.29C624.361 458.35 623.504 467.42 625.621 476.028C627.737 484.636 632.701 492.276 639.707 497.707L641.232 499.116C648.164 499.658 655.137 498.901 661.791 496.883C662.428 496.622 663.047 496.344 663.648 496.048L664.293 495.701C664.825 495.423 665.113 495.274 665.389 495.113L673.04 488.061L676.524 480.569L677.621 474.608L672.32 474.589C665.396 474.566 658.471 474.534 651.545 474.492L650.922 474.49C647.282 474.479 641.776 474.463 639.946 468.084C639.312 465.851 639.308 463.486 639.934 461.251C640.56 459.015 641.791 456.996 643.492 455.416C652.1 446.25 663.005 446.961 672.578 448.929L694.594 448.566C694.403 448.194 694.201 447.832 693.999 447.47L693.634 446.804C693.489 446.537 693.346 446.27 693.191 446.015C692.876 445.496 692.535 445.007 692.194 444.516L691.439 443.415C691.073 442.925 690.678 442.467 690.284 442.007L689.474 441.042C689.086 440.621 688.671 440.229 688.259 439.836L687.293 438.899C686.876 438.531 686.432 438.191 685.988 437.85L684.887 436.981C684.38 436.616 683.84 436.284 683.302 435.95L682.253 435.278C681.333 434.745 680.375 434.247 679.379 433.784L675.313 431.62C675.071 431.446 674.871 431.3 674.681 431.139L674.331 430.814C674.041 430.535 673.857 430.355 673.688 430.158L673.358 429.729C673.168 429.478 672.992 429.217 672.829 428.947L672.563 428.412C672.495 428.267 672.436 428.136 672.382 428.012C671.624 427.992 670.868 427.933 670.116 427.836C668.956 427.675 667.806 427.559 666.667 427.482L665.697 427.449C664.887 427.411 664.079 427.375 663.282 427.377L662.421 427.407C661.638 427.426 660.856 427.452 660.086 427.514L659.387 427.582C658.332 427.693 657.647 427.771 656.972 427.875L655.92 428.055C655.216 428.182 654.574 428.312 653.94 428.46L652.857 428.725C652.227 428.891 651.601 429.075 650.983 429.271L649.976 429.595C649.333 429.82 648.702 430.067 648.076 430.323L647.218 430.671C646.476 430.996 645.753 431.351 645.039 431.721L643.518 429.964L644.584 431.944C643.714 432.412 642.866 432.913 642.039 433.448L640.415 431.84Z" fill="#B1B0B0"/>
<path d="M984.534 483.178C981.1 505.582 961.98 516.381 946.511 521.497H671.35C671.4 521.407 671.446 521.31 671.499 521.223C671.606 521.045 671.719 520.873 671.835 520.708C671.971 520.515 672.112 520.329 672.258 520.15C672.384 519.997 672.512 519.847 672.646 519.704C672.802 519.537 672.965 519.377 673.132 519.223C673.273 519.092 673.413 518.961 673.561 518.838C673.737 518.692 673.921 518.553 674.106 518.417C674.258 518.306 674.407 518.192 674.565 518.087C674.762 517.955 674.966 517.831 675.171 517.707C675.328 517.613 675.482 517.515 675.643 517.425C675.868 517.3 676.097 517.181 676.328 517.062C676.479 516.985 676.626 516.904 676.778 516.829C677.05 516.694 677.329 516.566 677.608 516.438C677.726 516.384 677.839 516.328 677.957 516.275C678.355 516.095 678.756 515.917 679.161 515.742C679.667 515.52 680.173 515.293 680.679 515.061C682.654 514.261 684.454 513.083 685.976 511.593C686.247 511.307 686.501 511.007 686.736 510.692C687.92 509.707 689.05 508.69 690.128 507.642L690.212 507.552C705.398 492.699 709.719 471.948 701.245 454.674C700.647 453.45 699.984 452.244 699.256 451.056C696.711 444.001 692.003 437.93 685.804 433.71C684.199 432.615 682.51 431.65 680.751 430.824L680.138 430.543C679.838 430.408 679.54 430.273 679.248 430.134L679.052 430.037C678.827 429.93 678.608 429.821 678.393 429.708C678.296 429.656 678.205 429.6 678.11 429.547C677.933 429.447 677.757 429.348 677.589 429.241C677.487 429.176 677.392 429.103 677.294 429.035C677.145 428.931 676.997 428.826 676.859 428.713C676.761 428.633 676.672 428.545 676.58 428.459C676.456 428.344 676.333 428.227 676.22 428.099C676.134 428.003 676.058 427.898 675.98 427.795C675.878 427.662 675.783 427.523 675.696 427.38C675.627 427.265 675.566 427.141 675.507 427.016C675.43 426.859 675.363 426.697 675.305 426.531C675.258 426.394 675.215 426.249 675.18 426.101C675.159 426.015 675.146 425.921 675.128 425.831L703.706 425.826C776.684 425.816 849.662 425.801 922.64 425.781C925.831 425.781 929.073 425.715 932.209 425.653C933.704 425.623 935.198 425.595 936.693 425.57C962.594 426.684 980.421 440.918 984.382 463.652C985.508 470.107 985.56 476.705 984.534 483.178Z" fill="#B8B8B8"/>
<path d="M946.87 523.752H667.502L669.383 520.399C669.568 520.062 669.771 519.735 669.99 519.418C670.158 519.178 670.334 518.947 670.517 518.724C670.673 518.534 670.832 518.348 670.999 518.17C671.192 517.964 671.392 517.768 671.597 517.578L672.118 517.113C672.329 516.937 672.548 516.77 672.77 516.607L676.666 514.398L679.738 513.021C681.443 512.337 683.001 511.332 684.328 510.061C684.543 509.835 684.745 509.596 684.932 509.346L685.292 508.968C686.431 508.02 687.518 507.043 688.553 506.035C703.106 491.795 707.26 472.06 699.22 455.67C698.65 454.506 698.021 453.361 697.332 452.237C695.841 448.007 693.523 444.116 690.513 440.792C687.503 437.467 683.861 434.775 679.8 432.872L675.998 430.885C675.805 430.75 675.611 430.61 675.428 430.461L675.043 430.114C674.867 429.951 674.694 429.783 674.534 429.603L674.212 429.202C674.048 428.99 673.897 428.769 673.758 428.54L673.473 427.997C673.36 427.763 673.26 427.522 673.174 427.277L672.992 426.656L672.468 423.974L675.123 423.587L922.637 423.537C925.771 423.537 928.954 423.473 932.037 423.412L936.655 423.326C963.82 424.491 982.44 439.423 986.596 463.271C987.764 469.967 987.818 476.809 986.756 483.522C983.147 507.062 963.261 518.329 947.215 523.637L946.87 523.752ZM677.009 519.251H946.143C960.935 514.294 979.069 503.966 982.307 482.839C983.294 476.608 983.245 470.257 982.162 464.043C978.396 442.429 961.361 428.891 936.594 427.823L932.353 427.906C929.015 427.972 925.802 428.036 922.638 428.037L680.18 428.085L681.685 428.782C683.556 429.658 685.353 430.683 687.06 431.847C693.644 436.329 698.647 442.772 701.358 450.26C702.063 451.363 702.7 452.509 703.265 453.689C712.177 471.851 707.669 493.627 691.785 509.164C690.643 510.283 689.528 511.29 688.368 512.263C688.126 512.572 687.873 512.865 687.608 513.144C685.888 514.842 683.852 516.189 681.617 517.109L677.767 518.852L676.327 517.065L677.355 519.067L677.009 519.251ZM676.096 519.251H676.607L675.167 517.711L676.096 519.251ZM674.711 519.251H675.026L674.106 518.422L674.711 519.251Z" fill="#B1B0B0"/>
<path d="M897.261 263.653C894.441 265.066 891.274 265.641 888.137 265.311C859.917 265.107 831.22 265.139 803.468 265.171C793.084 265.182 782.7 265.19 772.316 265.194C761.994 265.187 751.666 265.179 741.332 265.168C734.545 265.159 727.707 265.151 720.819 265.145C700.177 265.13 679.212 265.152 658.51 265.318C655.212 265.671 651.882 265.076 648.911 263.602C647.932 262.815 647.174 261.787 646.713 260.618C646.253 259.449 646.105 258.18 646.286 256.936C646.148 255.808 646.305 254.663 646.739 253.613C647.174 252.563 647.872 251.642 648.766 250.941C648.992 250.788 649.228 250.65 649.473 250.529C652.29 249.469 655.305 249.034 658.307 249.254H658.475C739.941 249.438 815.049 249.431 888.099 249.239C891.265 248.925 894.456 249.511 897.303 250.93C898.233 251.677 898.953 252.652 899.393 253.76C899.832 254.869 899.975 256.072 899.809 257.253C899.976 258.449 899.83 259.668 899.383 260.791C898.936 261.913 898.205 262.9 897.261 263.653Z" fill="#9E9E9E"/>
<path d="M658.107 267.568C654.491 267.909 650.855 267.177 647.653 265.463C646.379 264.461 645.38 263.153 644.747 261.661C644.115 260.169 643.871 258.541 644.037 256.928C643.892 255.432 644.134 253.924 644.741 252.548C645.348 251.173 646.299 249.977 647.503 249.076C647.812 248.867 648.134 248.679 648.469 248.513C651.593 247.274 654.956 246.757 658.308 247.001C739.684 247.185 814.792 247.181 888.093 246.986C891.715 246.627 895.361 247.352 898.57 249.067C899.678 250.133 900.558 251.412 901.158 252.828C901.758 254.243 902.065 255.765 902.06 257.302C902.055 258.84 901.739 260.36 901.131 261.772C900.523 263.184 899.635 264.457 898.521 265.517C895.335 267.217 891.715 267.928 888.124 267.558C859.782 267.353 831.156 267.387 803.473 267.418L772.318 267.443L720.819 267.394C700.183 267.379 679.226 267.401 658.527 267.567L658.107 267.568ZM658.472 251.502C655.765 251.295 653.043 251.649 650.479 252.541C650.324 252.617 650.175 252.704 650.032 252.8C649.34 253.27 648.546 254.165 648.538 256.941C648.53 260.188 649.36 261.187 650.173 261.736C652.78 262.911 655.653 263.371 658.497 263.067C679.201 262.901 700.175 262.879 720.823 262.894L772.32 262.942L803.466 262.919C831.158 262.887 859.793 262.854 888.154 263.059C890.837 263.345 893.548 262.905 896.003 261.786C896.771 261.269 897.556 260.324 897.559 257.249C897.561 254.234 896.794 253.302 896.039 252.79C893.549 251.672 890.81 251.224 888.093 251.488C814.798 251.68 739.686 251.685 658.472 251.502Z" fill="#B1B0B0"/>
<path d="M657.634 338.262H657.777C735.052 338.478 812.645 338.477 888.401 338.26H888.553C897.995 338.26 899.653 340.836 899.783 346.583C899.958 347.729 899.829 348.901 899.41 349.982C898.99 351.063 898.295 352.015 897.393 352.744C894.428 354.243 891.088 354.838 887.788 354.454C859.772 354.26 831.286 354.29 803.738 354.319C783.209 354.341 762.679 354.341 742.149 354.319C735.268 354.311 728.335 354.304 721.352 354.298C700.423 354.285 679.162 354.306 658.168 354.455C654.927 354.812 651.652 354.224 648.738 352.762C647.818 352.026 647.108 351.06 646.679 349.962C646.25 348.863 646.118 347.672 646.295 346.506C646.373 340.927 648.094 338.262 657.634 338.262Z" fill="#9E9E9E"/>
<path d="M657.633 356.706C654.112 357.04 650.571 356.312 647.467 354.615C646.251 353.661 645.299 352.413 644.701 350.987C644.103 349.562 643.879 348.008 644.05 346.472C644.157 338.846 647.84 336.01 657.639 336.01H657.782C734.979 336.226 812.567 336.225 888.401 336.008C898.337 336.008 901.865 338.761 902.039 346.531C902.232 348.051 902.024 349.595 901.435 351.009C900.845 352.424 899.896 353.659 898.68 354.592C895.347 356.398 891.539 357.134 887.773 356.701C859.642 356.507 831.227 356.538 803.747 356.566C783.215 356.588 762.684 356.588 742.153 356.566L721.355 356.546C700.43 356.533 679.177 356.554 658.188 356.703C658.001 356.705 657.816 356.706 657.633 356.706ZM657.639 338.261V340.511C648.635 340.511 648.603 342.779 648.55 346.536C648.509 349.469 649.271 350.391 650.019 350.907C652.567 352.054 655.374 352.501 658.153 352.203C679.157 352.054 700.422 352.033 721.358 352.046L742.158 352.066C762.689 352.088 783.217 352.088 803.743 352.066C831.232 352.036 859.657 352.005 887.81 352.201C890.647 352.522 893.517 352.07 896.118 350.893C896.814 350.411 897.606 349.49 897.54 346.634C897.45 342.684 897.402 340.51 888.559 340.51C812.573 340.727 734.975 340.728 657.776 340.512L657.639 338.261Z" fill="#B1B0B0"/>
<path d="M657.606 293.768H657.751C734.866 293.981 812.461 293.98 888.38 293.768H888.534C898.008 293.768 899.666 296.311 899.782 301.983C899.953 303.128 899.82 304.297 899.395 305.373C898.97 306.449 898.27 307.394 897.363 308.113C894.406 309.574 891.094 310.163 887.814 309.81C859.514 309.624 830.739 309.652 802.915 309.681C782.423 309.702 761.93 309.702 741.438 309.681C714.151 309.652 685.934 309.622 658.187 309.812C654.944 310.171 651.667 309.586 648.747 308.129C647.834 307.401 647.127 306.447 646.696 305.361C646.266 304.275 646.128 303.096 646.296 301.94C646.377 296.408 648.095 293.768 657.606 293.768Z" fill="#9E9E9E"/>
<path d="M657.573 312.066C654.079 312.377 650.571 311.654 647.485 309.989C646.256 309.059 645.292 307.824 644.689 306.405C644.086 304.987 643.866 303.436 644.049 301.906C644.161 294.335 647.837 291.52 657.609 291.52H657.754C734.885 291.733 812.476 291.732 888.378 291.52C898.346 291.52 901.878 294.246 902.037 301.939C902.226 303.459 902.011 305.001 901.415 306.411C900.818 307.822 899.861 309.05 898.639 309.972C895.315 311.729 891.544 312.457 887.805 312.063C859.302 311.875 830.64 311.905 802.922 311.934C782.428 311.955 761.934 311.955 741.44 311.934H740.784C713.714 311.905 685.723 311.876 658.207 312.066C657.992 312.066 657.781 312.066 657.573 312.066ZM657.609 293.77V296.02C648.638 296.02 648.605 298.261 648.549 301.973C648.506 304.865 649.312 305.788 650.018 306.268C652.57 307.417 655.382 307.863 658.164 307.561C685.707 307.372 713.708 307.401 740.786 307.43H741.442C761.933 307.451 782.424 307.451 802.915 307.43C830.64 307.401 859.311 307.371 887.831 307.559C890.652 307.852 893.501 307.402 896.095 306.254C896.795 305.774 897.593 304.858 897.535 302.028C897.455 298.152 897.411 296.016 888.536 296.016C812.48 296.231 734.88 296.231 657.747 296.016L657.609 293.77Z" fill="#B1B0B0"/>
<path d="M897.386 397.263C894.981 398.537 892.27 399.119 889.554 398.943C889.005 398.956 888.426 398.959 887.819 398.953C859.787 398.759 831.285 398.79 803.723 398.818C783.234 398.839 762.746 398.839 742.259 398.818C714.709 398.788 686.216 398.757 658.197 398.953C654.945 399.305 651.66 398.723 648.728 397.274C647.819 396.546 647.116 395.593 646.69 394.509C646.263 393.426 646.128 392.25 646.297 391.098C646.387 385.557 648.105 382.91 657.606 382.91H657.752C696.248 383.017 734.896 383.071 773.424 383.07C811.951 383.07 850.359 383.016 888.376 382.908H888.525C898.008 382.908 899.668 385.454 899.787 391.135C899.96 392.278 899.829 393.445 899.407 394.521C898.986 395.597 898.288 396.542 897.386 397.263Z" fill="#9E9E9E"/>
<path d="M657.684 401.204C654.148 401.526 650.595 400.805 647.463 399.131C646.239 398.201 645.28 396.966 644.681 395.55C644.083 394.134 643.865 392.586 644.051 391.06C644.174 383.477 647.849 380.659 657.61 380.659C696.257 380.765 734.863 380.819 773.427 380.818C811.954 380.818 850.358 380.764 888.375 380.656C898.345 380.656 901.881 383.386 902.041 391.087C902.232 392.604 902.02 394.145 901.426 395.555C900.832 396.964 899.878 398.193 898.659 399.117C895.904 400.661 892.762 401.381 889.609 401.191C889.037 401.203 888.434 401.207 887.801 401.2C859.918 401.008 831.553 401.038 804.123 401.065C783.239 401.087 762.75 401.087 742.261 401.065C714.626 401.036 686.183 401.005 658.217 401.2C658.037 401.204 657.859 401.204 657.684 401.204ZM657.749 385.159C648.648 385.159 648.612 387.408 648.551 391.132C648.506 394.017 649.302 394.936 650.002 395.414C652.567 396.556 655.389 397 658.181 396.701C686.17 396.505 714.622 396.536 742.135 396.566C762.752 396.589 783.238 396.588 803.725 396.566C831.557 396.537 859.931 396.507 887.839 396.701C888.428 396.707 888.981 396.704 889.507 396.692C891.784 396.843 894.061 396.4 896.116 395.405C896.811 394.928 897.601 394.018 897.542 391.182C897.46 387.298 897.416 385.158 888.53 385.158C850.254 385.267 811.773 385.32 773.087 385.32C734.668 385.32 696.136 385.266 657.749 385.159Z" fill="#B1B0B0"/>
<path d="M897.386 219.099C894.981 220.373 892.27 220.955 889.554 220.779C889.005 220.792 888.426 220.795 887.819 220.789C859.787 220.595 831.285 220.626 803.723 220.654C783.234 220.674 762.746 220.674 742.259 220.654C714.709 220.624 686.216 220.593 658.197 220.789C654.945 221.141 651.66 220.558 648.728 219.11C647.819 218.382 647.116 217.429 646.69 216.345C646.263 215.261 646.128 214.085 646.297 212.933C646.387 207.392 648.105 204.746 657.606 204.746H657.752C696.248 204.853 734.896 204.906 773.424 204.906C811.951 204.905 850.359 204.852 888.376 204.744H888.525C898.008 204.744 899.668 207.29 899.787 212.971C899.96 214.113 899.829 215.281 899.407 216.356C898.986 217.432 898.288 218.378 897.386 219.099Z" fill="#9E9E9E"/>
<path d="M657.685 223.042C654.148 223.364 650.595 222.643 647.463 220.968C646.239 220.038 645.28 218.804 644.681 217.388C644.082 215.971 643.865 214.423 644.051 212.897C644.174 205.315 647.849 202.496 657.61 202.496C696.257 202.603 734.863 202.656 773.427 202.656C811.954 202.656 850.358 202.602 888.375 202.494C898.345 202.494 901.881 205.223 902.041 212.924C902.232 214.442 902.02 215.983 901.426 217.392C900.832 218.802 899.878 220.03 898.659 220.954C895.904 222.499 892.762 223.219 889.609 223.028C889.037 223.041 888.434 223.044 887.801 223.037C859.918 222.845 831.553 222.875 804.123 222.902C783.239 222.924 762.75 222.924 742.261 222.902C714.626 222.873 686.183 222.842 658.217 223.037C658.038 223.041 657.859 223.042 657.685 223.042ZM657.749 206.997C648.648 206.997 648.612 209.245 648.551 212.97C648.506 215.855 649.302 216.774 650.002 217.252C652.567 218.393 655.389 218.837 658.181 218.539C686.17 218.343 714.622 218.373 742.135 218.404C762.752 218.426 783.238 218.425 803.725 218.404C831.557 218.375 859.931 218.345 887.839 218.539C888.428 218.545 888.981 218.541 889.507 218.53C891.784 218.681 894.061 218.237 896.115 217.243C896.811 216.766 897.6 215.855 897.542 213.02C897.46 209.136 897.416 206.996 888.53 206.996C850.24 207.104 811.743 207.158 773.038 207.158C734.635 207.157 696.122 207.103 657.749 206.997Z" fill="#B1B0B0"/>
<path d="M897.386 174.601C894.981 175.875 892.27 176.457 889.554 176.281C889.005 176.294 888.426 176.297 887.819 176.291C859.787 176.097 831.285 176.128 803.723 176.156C783.234 176.176 762.746 176.176 742.259 176.156C714.709 176.126 686.216 176.095 658.197 176.291C654.945 176.643 651.66 176.061 648.728 174.611C647.819 173.884 647.116 172.931 646.69 171.847C646.263 170.764 646.128 169.587 646.297 168.435C646.387 162.894 648.105 160.248 657.606 160.248H657.752C696.248 160.355 734.896 160.409 773.424 160.408C811.951 160.408 850.359 160.354 888.376 160.246H888.525C898.008 160.246 899.668 162.792 899.787 168.473C899.96 169.615 899.829 170.783 899.407 171.858C898.986 172.934 898.288 173.88 897.386 174.601Z" fill="#9E9E9E"/>
<path d="M657.685 178.544C654.148 178.866 650.595 178.145 647.463 176.471C646.239 175.541 645.28 174.306 644.681 172.89C644.082 171.474 643.865 169.925 644.051 168.399C644.174 160.817 647.849 157.998 657.61 157.998C696.257 158.105 734.863 158.158 773.427 158.158C811.954 158.158 850.358 158.104 888.375 157.996C898.345 157.996 901.881 160.725 902.041 168.426C902.232 169.944 902.02 171.485 901.426 172.894C900.832 174.304 899.878 175.532 898.659 176.456C895.904 178.001 892.762 178.721 889.609 178.53C889.037 178.543 888.434 178.547 887.801 178.54C859.918 178.348 831.553 178.378 804.123 178.405C783.239 178.426 762.75 178.427 742.261 178.405C714.626 178.376 686.183 178.345 658.217 178.54C658.038 178.543 657.859 178.544 657.685 178.544ZM657.749 162.499C648.648 162.499 648.612 164.75 648.551 168.472C648.506 171.357 649.302 172.276 650.002 172.754C652.567 173.896 655.389 174.34 658.181 174.041C686.17 173.845 714.622 173.876 742.135 173.906C762.752 173.928 783.238 173.928 803.725 173.906C831.557 173.877 859.931 173.847 887.839 174.041C888.428 174.047 888.981 174.044 889.507 174.032C891.784 174.183 894.061 173.739 896.116 172.745C896.811 172.268 897.601 171.358 897.542 168.522C897.461 164.638 897.416 162.498 888.531 162.498C850.255 162.606 811.774 162.66 773.087 162.66C734.668 162.659 696.136 162.606 657.749 162.499Z" fill="#B1B0B0"/>
<path d="M897.386 130.103C894.981 131.377 892.27 131.959 889.554 131.783C889.005 131.796 888.426 131.799 887.819 131.793C859.787 131.599 831.285 131.63 803.723 131.658C783.234 131.679 762.746 131.679 742.259 131.658C714.709 131.628 686.216 131.597 658.197 131.793C654.945 132.145 651.66 131.562 648.728 130.113C647.819 129.386 647.116 128.433 646.69 127.349C646.263 126.265 646.128 125.089 646.297 123.937C646.387 118.396 648.105 115.75 657.606 115.75H657.752C696.248 115.857 734.896 115.91 773.424 115.91C811.951 115.91 850.359 115.856 888.376 115.748H888.525C898.008 115.748 899.668 118.294 899.787 123.975C899.96 125.117 899.829 126.285 899.407 127.36C898.986 128.436 898.288 129.382 897.386 130.103Z" fill="#9E9E9E"/>
<path d="M657.685 134.046C654.149 134.368 650.595 133.647 647.463 131.972C646.239 131.042 645.28 129.808 644.681 128.391C644.082 126.975 643.865 125.427 644.051 123.901C644.174 116.319 647.849 113.5 657.61 113.5C696.257 113.607 734.863 113.66 773.427 113.66C811.954 113.66 850.358 113.606 888.375 113.498C898.345 113.498 901.881 116.227 902.041 123.928C902.232 125.446 902.02 126.987 901.426 128.396C900.833 129.806 899.878 131.034 898.66 131.958C895.904 133.503 892.762 134.223 889.609 134.032C889.037 134.045 888.434 134.048 887.801 134.042C859.901 133.85 831.519 133.879 804.072 133.907C783.239 133.929 762.75 133.929 742.261 133.907C714.626 133.877 686.183 133.847 658.217 134.042C658.038 134.045 657.86 134.046 657.685 134.046ZM657.749 118.001C648.648 118.001 648.612 120.251 648.551 123.974C648.506 126.859 649.302 127.777 650.002 128.256C652.567 129.397 655.389 129.841 658.181 129.543C686.17 129.346 714.622 129.377 742.135 129.408C762.752 129.43 783.238 129.43 803.725 129.408C831.523 129.378 859.914 129.349 887.839 129.543C888.428 129.549 888.981 129.545 889.507 129.534C891.784 129.685 894.061 129.241 896.116 128.247C896.811 127.77 897.601 126.86 897.542 124.024C897.461 120.14 897.416 118 888.531 118C850.255 118.108 811.774 118.162 773.087 118.162C734.668 118.161 696.136 118.107 657.749 118.001Z" fill="#B1B0B0"/>
</svg>
