<svg width="198" height="90" viewBox="0 0 198 90" fill="none" xmlns="http://www.w3.org/2000/svg">
<g clip-path="url(#clip0_1304_16)">
<path fill-rule="evenodd" clip-rule="evenodd" d="M96.4995 20.7792C96.8112 20.7971 97.2974 20.7967 97.5802 20.7788C97.863 20.7613 97.6081 20.7466 97.0139 20.747C96.4194 20.747 96.1881 20.7617 96.4995 20.7792ZM99.3777 20.7785C99.5883 20.7974 99.9325 20.7974 100.143 20.7785C100.354 20.7595 100.181 20.7441 99.7602 20.7441C99.3395 20.7441 99.1671 20.7595 99.3777 20.7785ZM95.1227 20.8925L94.8525 20.9615L95.1678 20.9629C95.3412 20.964 95.5843 20.9322 95.708 20.8925C96.0229 20.7917 95.5192 20.7917 95.1227 20.8925ZM100.887 20.89C101.037 20.9379 101.482 21.0187 101.878 21.0695C102.273 21.1206 102.739 21.1824 102.912 21.2067L103.227 21.2511L102.957 21.1592C102.809 21.1088 102.383 21.0294 102.012 20.9826C101.64 20.9354 101.174 20.8761 100.976 20.8503C100.646 20.8071 100.639 20.8106 100.887 20.89ZM93.5919 21.127C93.2334 21.2521 93.233 21.2525 93.5469 21.2021C93.7203 21.1742 94.0849 21.1195 94.3573 21.0802L94.8525 21.009L94.4024 21.0055C94.1546 21.0033 93.79 21.058 93.5919 21.127ZM92.3764 21.3937C92.0929 21.5006 92.0844 21.5135 92.2906 21.5178C92.4172 21.5206 92.5588 21.486 92.6059 21.4406C92.6528 21.3951 92.7929 21.3401 92.9166 21.3176L93.1418 21.2772L92.9166 21.2757C92.7929 21.275 92.5495 21.3279 92.3764 21.3937ZM103.633 21.3573C104.212 21.5149 104.402 21.5317 104.038 21.393C103.84 21.3172 103.597 21.2589 103.498 21.2632C103.395 21.2679 103.454 21.3083 103.633 21.3573ZM90.8903 21.8059C90.053 22.1112 90.299 22.0866 91.3408 21.7605C91.7369 21.6365 91.9599 21.5371 91.8359 21.5392C91.7122 21.5414 91.2868 21.6615 90.8903 21.8059ZM105.158 21.7544C105.527 21.8721 105.844 21.9532 105.862 21.9353C105.906 21.891 104.751 21.5206 104.604 21.5317C104.54 21.5367 104.79 21.6368 105.158 21.7544ZM106.064 22.0319C106.138 22.0565 106.28 22.1127 106.379 22.1566C106.478 22.201 106.924 22.3851 107.37 22.566C109.165 23.2953 111.369 24.524 112.548 25.4542C112.82 25.6691 113.084 25.8753 113.134 25.9129C113.595 26.2561 114.23 26.7945 114.749 27.2828C115.093 27.6067 115.277 27.7501 115.158 27.6013C115.038 27.4526 114.663 27.088 114.324 26.7909C113.984 26.4938 113.658 26.2085 113.6 26.157C112.69 25.3588 110.228 23.775 108.932 23.1548C107.853 22.6382 106.227 21.9722 106.066 21.9804C105.946 21.9865 105.946 21.9929 106.064 22.0319ZM89.2243 22.3783C89.1007 22.4437 88.7664 22.6021 88.4815 22.7304C87.5609 23.1455 86.9721 23.4429 87.0054 23.4762C87.0232 23.494 87.2359 23.41 87.4783 23.2895C87.7207 23.1687 88.1619 22.9639 88.4589 22.8337C89.3881 22.4269 89.7245 22.2546 89.5847 22.2571C89.5104 22.2585 89.3484 22.3132 89.2243 22.3783ZM96.2035 23.1047C96.1538 23.1251 95.6879 23.2027 95.1678 23.277C93.667 23.4915 93.2244 23.5695 92.9027 23.676C92.7368 23.7311 92.0947 23.9409 91.4759 24.1429C90.2078 24.5558 89.214 24.9512 88.549 25.3073C87.5091 25.8643 86.9542 26.166 86.8105 26.2532C86.3744 26.5188 85.6275 27.0229 85.5196 27.1248C85.452 27.1888 85.0116 27.5316 84.5415 27.8866C83.4203 28.7328 81.4073 30.8049 80.7155 31.8241C80.5925 32.005 80.3294 32.3733 80.1306 32.6425C79.9319 32.9117 79.7692 33.1576 79.7692 33.1891C79.7692 33.2209 79.693 33.3542 79.5997 33.4858C79.2955 33.9148 78.3488 35.7177 78.1504 36.2461C78.1132 36.3451 77.9996 36.6086 77.8977 36.8316C77.686 37.295 77.2477 38.6149 77.2477 38.789C77.2477 38.8529 77.2098 38.9756 77.1634 39.0614C77.0032 39.3574 76.586 41.5217 76.4648 42.6846C76.2289 44.9469 76.5817 49.1486 77.1451 50.7892C77.1877 50.9132 77.2942 51.2575 77.3822 51.5549C77.4697 51.852 77.597 52.2227 77.6649 52.379C77.7325 52.5348 77.7879 52.7039 77.7879 52.7543C77.7879 52.8047 77.8466 52.9606 77.9181 53.1008C77.9896 53.2409 78.312 53.9083 78.6345 54.5833C78.957 55.2586 79.3441 55.994 79.495 56.2174C79.6459 56.4409 79.7692 56.665 79.7692 56.7158C79.7692 56.7662 79.7996 56.8213 79.8368 56.8377C79.8739 56.8541 80.0663 57.1094 80.2643 57.4047C81.0061 58.5101 81.9828 59.6634 83.0035 60.6383C83.321 60.9418 83.6599 61.2657 83.7564 61.3576C84.3427 61.9185 86.2003 63.2759 86.9281 63.6756C87.0768 63.7571 87.3403 63.9087 87.5137 64.0124C88.0049 64.3059 89.7699 65.1699 90.1699 65.3129C95.5618 67.2395 100.149 67.3396 105.347 65.6436C105.622 65.5539 105.966 65.4324 106.113 65.373C106.259 65.3137 106.46 65.2336 106.559 65.1953C107.253 64.9279 109.769 63.6302 110.056 63.3925C110.114 63.3446 110.619 62.9778 111.18 62.5774C112.109 61.9128 112.592 61.5009 113.807 60.3348C114.52 59.6509 115.638 58.2706 116.36 57.183C116.739 56.6132 117.081 56.107 117.12 56.0573C117.203 55.9543 118.286 53.7421 118.421 53.4007C118.47 53.277 118.564 53.0543 118.631 52.9056C118.922 52.2563 119.41 50.6151 119.608 49.6187C119.682 49.2473 119.787 48.7203 119.842 48.4479C120.15 46.916 120.149 43.2141 119.84 41.5592C119.399 39.1986 119.01 37.7962 118.485 36.6736C118.34 36.364 118.221 36.073 118.221 36.0269C118.221 35.5607 116.101 32.1284 115.14 31.038C114.885 30.7488 114.572 30.3841 114.445 30.2275C113.869 29.5218 112.262 28.0768 111.167 27.2796C110.762 26.985 110.391 26.714 110.341 26.6769C110.104 26.4988 109.63 26.2228 108.54 25.6283C108.441 25.5743 108.299 25.4864 108.225 25.4331C108.115 25.3541 107.239 24.9755 105.839 24.4017C105.74 24.3613 105.274 24.2033 104.803 24.0507C104.333 23.8984 103.812 23.7293 103.647 23.6749C103.317 23.567 102.955 23.5055 101.066 23.2352C99.9115 23.0704 96.5109 22.9792 96.2035 23.1047ZM86.2979 23.795C84.0978 25.156 82.9466 26.0162 81.6361 27.2789C81.2514 27.6496 80.9046 27.9749 80.8653 28.0021C80.7384 28.0897 79.1039 30.0388 78.7957 30.4706C78.3724 31.063 78.5004 30.9894 78.9662 30.3727C80.1867 28.7561 81.8488 27.0572 83.3263 25.9161C83.3757 25.8778 83.5809 25.7148 83.7818 25.5532C84.1218 25.2808 84.722 24.8865 86.2979 23.9005C86.6446 23.6835 86.8877 23.5083 86.838 23.5112C86.7887 23.5144 86.5456 23.642 86.2979 23.795ZM115.431 27.8895C115.43 27.9488 115.482 28.03 115.546 28.0697C115.61 28.1094 115.92 28.4454 116.236 28.8172C116.551 29.1886 116.836 29.5125 116.868 29.5376C116.901 29.5622 117.101 29.8153 117.315 30.1003C117.528 30.3852 117.722 30.6179 117.747 30.6179C117.845 30.6179 116.63 29.0893 115.887 28.2767C115.638 28.0043 115.433 27.8301 115.431 27.8895ZM118.356 31.5675C118.69 32.0533 119.207 32.9199 119.504 33.4929C120.072 34.5876 120.292 34.9515 120.292 34.7985C120.292 34.7478 120.256 34.6677 120.213 34.6209C120.17 34.5737 119.94 34.1504 119.703 33.6799C119.251 32.7844 118.04 30.8639 117.856 30.7502C117.797 30.7137 118.022 31.0816 118.356 31.5675ZM77.8251 31.8846C77.4973 32.3829 77.2495 32.8108 77.2738 32.8355C77.2985 32.8598 77.4465 32.665 77.6027 32.4019C77.759 32.1391 78.0282 31.7112 78.2005 31.4509C78.3728 31.191 78.4929 30.9783 78.4672 30.9783C78.4414 30.9783 78.1526 31.3862 77.8251 31.8846ZM91.6936 32.5638C91.8766 32.6339 91.9077 35.0127 91.7279 35.1925C91.6621 35.2583 91.3429 35.3008 90.9143 35.3008C89.4989 35.3008 89.3241 35.6312 89.2719 38.4075C89.2043 42.0086 88.8604 43.2016 87.5266 44.4632C87.3042 44.6738 87.084 44.8461 87.0372 44.8461C86.9903 44.8461 87.2302 45.1224 87.5706 45.4606C88.7989 46.6808 89.1807 47.8684 89.2705 50.7445C89.3831 54.3541 89.4471 54.51 90.8399 54.5576L91.7508 54.5883L91.7258 55.9082L91.7008 57.2281L90.4853 57.2224C87.9849 57.2106 86.7969 56.2796 86.5181 54.1128C86.4759 53.7864 86.3994 53.2595 86.3479 52.942C86.2964 52.6249 86.2539 51.5835 86.2535 50.6276C86.2525 47.5806 85.8034 46.6776 84.2047 46.5063C83.474 46.428 83.4615 46.4005 83.4615 44.914C83.4615 43.4325 83.4722 43.4129 84.337 43.3178C85.7684 43.1608 86.1795 42.3078 86.2928 39.263C86.478 34.2837 86.9871 33.1594 89.2694 32.69C89.5668 32.6289 89.8503 32.5663 89.9 32.5509C90.0698 32.4987 91.551 32.5091 91.6936 32.5638ZM107.292 32.7C109.495 33.233 109.95 34.1307 110.16 38.3625C110.369 42.5602 110.605 43.1483 112.157 43.3224C113.052 43.4229 113.006 43.3303 112.978 44.988L112.953 46.4219L112.315 46.5174C110.751 46.7516 110.358 47.4301 110.257 50.0688C110.02 56.2042 109.379 57.2731 105.934 57.2731H104.713V56.0301C104.713 54.5576 104.705 54.5715 105.566 54.5715C107.007 54.5715 107.152 54.2969 107.248 51.3787C107.369 47.7157 107.618 46.8213 108.878 45.5214L109.489 44.8911L109.24 44.7159C108.538 44.2222 107.946 43.3903 107.716 42.5734C107.544 41.9639 107.362 40.3226 107.136 37.3268L107.027 35.8861L106.719 35.5933C106.421 35.3098 106.388 35.3005 105.63 35.2994C104.591 35.2976 104.64 35.3605 104.615 34.0056C104.595 32.947 104.608 32.8394 104.766 32.7486C105.179 32.5105 106.41 32.4869 107.292 32.7ZM77.0908 33.0718C76.9471 33.2534 75.8299 35.5782 75.6733 36.0212C75.23 37.276 74.9969 37.9978 74.9998 38.1054C75.0026 38.2094 75.5421 36.7305 75.8095 35.8861C75.8564 35.7373 76.1963 35.018 76.5646 34.2877C77.2041 33.0189 77.2906 32.8194 77.0908 33.0718ZM120.292 34.9794C120.292 35.0009 120.389 35.2544 120.508 35.5425C120.626 35.8303 120.774 36.1992 120.835 36.3615C120.896 36.5242 120.968 36.6357 120.995 36.6093C121.021 36.5828 120.999 36.4698 120.946 36.3587C120.893 36.2471 120.738 35.8825 120.602 35.5482C120.385 35.0155 120.292 34.8439 120.292 34.9794ZM121.012 36.7769C121.012 36.8431 121.201 37.4651 121.424 38.1372C121.49 38.3353 121.546 38.4354 121.548 38.36C121.551 38.2842 121.447 37.8991 121.319 37.5045C121.099 36.8299 121.012 36.6239 121.012 36.7769ZM74.8389 38.5584C74.682 38.9938 74.7045 39.1947 74.8682 38.8172C74.9422 38.6467 74.9912 38.4483 74.9773 38.3764C74.963 38.3045 74.9008 38.3864 74.8389 38.5584ZM121.603 38.7225C121.757 39.3774 121.804 39.5004 121.809 39.263C121.812 39.1389 121.755 38.9162 121.682 38.7675C121.57 38.538 121.558 38.5312 121.603 38.7225ZM74.5551 39.5465C74.5007 39.7024 74.461 39.9558 74.4667 40.1092L74.4771 40.3884L74.544 40.0735C74.5808 39.9001 74.6412 39.6466 74.6784 39.5104C74.7713 39.17 74.6766 39.1976 74.5551 39.5465ZM121.833 39.623C121.837 39.6974 121.873 39.8593 121.913 39.9834L121.985 40.2086L121.992 39.9834C121.997 39.8593 121.961 39.6974 121.913 39.623C121.835 39.5029 121.826 39.5029 121.833 39.623ZM122.058 40.7488C122.089 40.9468 122.143 41.3115 122.18 41.5592C122.247 42.0036 122.248 42.0047 122.258 41.6493C122.265 41.4513 122.21 41.0862 122.137 40.8389C122.017 40.4345 122.009 40.4252 122.058 40.7488ZM74.3162 40.8339C74.2823 41.0144 74.2748 41.1828 74.2994 41.2074C74.3245 41.2321 74.3724 41.1045 74.4063 40.9239C74.4399 40.743 74.4474 40.575 74.4228 40.5504C74.3981 40.5253 74.3502 40.653 74.3162 40.8339ZM74.1318 42.1652C74.0188 43.0807 74.042 47.0208 74.1643 47.7275L74.2658 48.3131L74.2244 47.7275C74.0957 45.9143 74.0806 43.8158 74.1886 42.7518C74.313 41.5303 74.2676 41.0627 74.1318 42.1652ZM122.347 43.09C122.424 44.3348 122.421 45.8982 122.339 47.0072L122.276 47.8627L122.414 46.9621C122.559 46.0105 122.535 43.735 122.368 42.6399C122.306 42.2349 122.301 42.3479 122.347 43.09ZM93.3024 43.5623C93.8354 43.9205 94.0199 44.2859 94.0199 44.9855C94.0199 46.862 91.3136 47.2631 90.689 45.4789C90.1496 43.9377 91.9235 42.6364 93.3024 43.5623ZM98.929 43.3646C99.9923 43.8086 100.292 45.2529 99.5039 46.1384C98.8025 46.9271 97.1641 46.6883 96.7007 45.7298C96.0065 44.2927 97.4594 42.7504 98.929 43.3646ZM104.727 43.3174C105.884 43.6388 106.26 45.0448 105.468 46.0837C104.919 46.8037 103.673 46.8295 102.959 46.1356C101.684 44.8976 102.98 42.8323 104.727 43.3174ZM122.16 48.4028C122.007 49.4324 122.002 49.6048 122.142 49.0785C122.213 48.8061 122.262 48.4411 122.25 48.2681C122.229 47.9831 122.221 47.9964 122.16 48.4028ZM74.2941 48.7182C74.2941 48.8419 74.3266 49.0446 74.3663 49.1683L74.4382 49.3935V49.1683C74.4382 49.0446 74.406 48.8419 74.3663 48.7182L74.2941 48.4929V48.7182ZM74.5032 49.9179C74.5261 50.1567 74.5879 50.4202 74.6412 50.5032C74.7166 50.6211 74.7238 50.5947 74.6745 50.3841C74.4539 49.445 74.4596 49.4603 74.5032 49.9179ZM121.8 50.348C121.719 50.7166 121.627 51.0984 121.596 51.1963C121.552 51.3343 121.559 51.3444 121.627 51.2396C121.747 51.0541 122.026 49.9133 121.983 49.7832C121.963 49.7252 121.881 49.9791 121.8 50.348ZM74.7367 50.8914C74.7309 50.9726 74.7856 51.1753 74.8579 51.3418C74.9544 51.5639 74.9905 51.5957 74.993 51.4602C74.9948 51.3587 74.9601 51.2371 74.9151 51.1899C74.8704 51.1431 74.8146 51.0233 74.7906 50.9243C74.7603 50.7977 74.7442 50.7881 74.7367 50.8914ZM121.47 51.5395C121.466 51.6304 121.358 52.0082 121.23 52.3797C121.101 52.7511 121.013 53.0714 121.034 53.0922C121.101 53.1594 121.575 51.6203 121.525 51.4959C121.493 51.4159 121.474 51.4309 121.47 51.5395ZM75.0005 51.7666C74.9969 51.876 75.2815 52.7536 75.6733 53.8436C75.8649 54.376 76.6046 55.9221 76.6679 55.9221C76.6954 55.9221 76.7008 55.8918 76.6793 55.8546C76.6178 55.7473 75.98 54.3649 75.9007 54.1661C75.861 54.0671 75.7638 53.824 75.6848 53.6259C75.6054 53.4279 75.4198 52.9009 75.2726 52.4551C75.1249 52.0097 75.0023 51.6997 75.0005 51.7666ZM120.84 53.4979C120.776 53.6674 120.625 54.0445 120.505 54.3359C120.385 54.6276 120.307 54.8868 120.332 54.9118C120.357 54.9369 120.405 54.8807 120.438 54.7871C120.471 54.6931 120.574 54.4464 120.665 54.2387C120.757 54.031 120.832 53.8061 120.832 53.7389C120.832 53.6717 120.877 53.5719 120.932 53.5169C120.988 53.4615 121.015 53.3657 120.995 53.3031C120.974 53.2409 120.905 53.3285 120.84 53.4979ZM119.756 55.9411C119.499 56.4509 119.333 56.8234 119.388 56.7694C119.511 56.6493 120.296 55.0856 120.254 55.0441C120.238 55.028 120.014 55.4317 119.756 55.9411ZM76.7079 56.0398C76.7076 56.1177 77.1966 57.0254 77.3961 57.3157C77.6106 57.6281 77.5262 57.3729 77.2928 57.0029C77.1691 56.8066 77.0676 56.615 77.0672 56.5767C77.0668 56.5388 76.9861 56.3858 76.8877 56.2375C76.7891 56.0887 76.7083 55.9997 76.7079 56.0398ZM118.896 57.4819C118.484 58.1233 118.41 58.2695 118.591 58.0818C118.779 57.8866 119.331 57.0018 119.289 56.9607C119.27 56.9414 119.093 57.1759 118.896 57.4819ZM77.6657 57.7797C77.7568 57.922 77.8623 58.0789 77.8998 58.1283C77.9374 58.178 78.1955 58.5426 78.4729 58.9387C79.5661 60.4992 81.3658 62.4912 82.5159 63.4143C82.6642 63.5333 82.9785 63.7857 83.2137 63.9748C83.4489 64.1639 83.6413 64.2952 83.6413 64.2666C83.6413 64.238 83.3474 63.9831 82.9885 63.6999C81.4702 62.5034 79.4757 60.3097 78.2709 58.5119C77.7497 57.734 77.241 57.1187 77.6657 57.7797ZM118.221 58.5337C118.115 58.6824 118.061 58.8036 118.102 58.8032C118.143 58.8029 118.245 58.6813 118.329 58.533C118.526 58.1862 118.468 58.1865 118.221 58.5337ZM117.452 59.5894C117.164 59.9744 116.905 60.3097 116.877 60.3348C116.848 60.3594 116.561 60.6837 116.24 61.0551C115.918 61.4266 115.604 61.763 115.542 61.8023C115.48 61.842 115.429 61.916 115.429 61.9671C115.429 62.123 115.841 61.6757 117.307 59.9294C117.39 59.8303 117.557 59.6076 117.677 59.4342C117.798 59.2608 117.938 59.0907 117.989 59.0563C118.039 59.022 118.057 58.9702 118.028 58.9416C118 58.9126 117.74 59.2043 117.452 59.5894ZM114.484 62.8337C114.038 63.2627 113.835 63.4868 114.033 63.332C114.389 63.0535 115.417 62.0418 115.336 62.0497C115.313 62.0518 114.929 62.4047 114.484 62.8337ZM113.351 63.8136C113.143 64.0395 113.142 64.0449 113.334 63.928C113.444 63.8604 113.554 63.7539 113.579 63.691C113.643 63.523 113.595 63.5487 113.351 63.8136ZM112.503 64.4296C111.792 64.9537 111.572 65.1324 111.737 65.0538C111.918 64.9672 113.088 64.1096 113.088 64.0631C113.088 64.0016 113.059 64.0195 112.503 64.4296ZM83.7314 64.3205C83.7314 64.4442 86.2074 66.098 86.3929 66.098C86.4169 66.098 86.6017 66.2021 86.8034 66.3297C87.0053 66.457 87.1866 66.5449 87.2063 66.5252C87.2259 66.5056 86.827 66.2532 86.3197 65.9647C85.3562 65.4163 84.5708 64.9158 84.0431 64.5132C83.8715 64.3824 83.7314 64.2959 83.7314 64.3205ZM110.972 65.4795C110.32 65.8971 110.371 65.9443 111.038 65.5417C111.605 65.2 111.597 65.2057 111.55 65.1653C111.529 65.1478 111.269 65.2894 110.972 65.4795ZM109.981 66.0519L109.711 66.2753L110.002 66.1359C110.162 66.0594 110.316 65.9586 110.345 65.9121C110.442 65.7548 110.253 65.8277 109.981 66.0519ZM109.126 66.5099C108.651 66.7573 107.797 67.1426 106.941 67.4955C106.606 67.6338 106.351 67.7661 106.375 67.7897C106.398 67.8133 106.571 67.7636 106.759 67.6796C106.946 67.5952 107.201 67.4844 107.325 67.4329C107.919 67.1866 108.135 67.0912 108.72 66.8187C109.348 66.5267 109.785 66.2685 109.618 66.2886C109.57 66.2943 109.348 66.3937 109.126 66.5099ZM87.3335 66.5781C87.3335 66.5946 87.5666 66.7219 87.8512 66.8609C88.1361 66.9996 88.4439 67.1512 88.5355 67.1973C88.627 67.2435 88.7231 67.2595 88.7496 67.2331C88.776 67.2066 88.681 67.1376 88.5383 67.0797C88.3957 67.0218 88.0829 66.8784 87.843 66.7612C87.4072 66.5481 87.3335 66.5217 87.3335 66.5781ZM89.436 67.542C89.7753 67.6889 90.0995 67.8072 90.1564 67.8058C90.2136 67.804 89.9826 67.6821 89.6433 67.5355C89.3041 67.3886 88.9798 67.2699 88.923 67.2717C88.8658 67.2735 89.0967 67.395 89.436 67.542ZM90.5128 67.9531C90.6518 68.0285 90.8342 68.0721 90.9182 68.05C91.0294 68.0207 91.0176 68.0071 90.8731 67.9996C90.7648 67.9935 90.6508 67.9484 90.6204 67.8987C90.5896 67.8494 90.496 67.8104 90.4123 67.8126C90.3104 67.8147 90.344 67.8616 90.5128 67.9531ZM105.704 67.9495C105.53 68.0153 105.455 68.0711 105.536 68.0739C105.617 68.0768 105.82 68.0199 105.986 67.9474C106.361 67.7847 106.135 67.7865 105.704 67.9495ZM91.3408 68.2091C91.4891 68.2816 91.7122 68.3388 91.8359 68.336C92.0432 68.331 92.0397 68.3249 91.7908 68.2566C91.1373 68.0775 91.0537 68.0689 91.3408 68.2091ZM105.048 68.1343C105.017 68.1651 104.859 68.2216 104.695 68.2602C104.451 68.3185 104.438 68.3317 104.623 68.336C104.87 68.3417 105.477 68.0982 105.246 68.0864C105.167 68.0821 105.078 68.104 105.048 68.1343ZM103.948 68.4393C103.834 68.4879 103.818 68.5165 103.903 68.5165C103.977 68.5165 104.119 68.4818 104.218 68.4393C104.332 68.3903 104.348 68.3617 104.263 68.3617C104.189 68.3617 104.047 68.3967 103.948 68.4393ZM93.0517 68.6338C93.7249 68.7907 93.9694 68.8068 93.5469 68.6667C93.3242 68.5927 93.0403 68.5362 92.9166 68.5408C92.7557 68.5473 92.794 68.5741 93.0517 68.6338ZM102.867 68.6738C102.469 68.8125 102.721 68.7939 103.407 68.6338C103.723 68.5601 103.734 68.5498 103.498 68.549C103.349 68.5487 103.065 68.6048 102.867 68.6738ZM94.7177 68.9309C95.0394 69.0009 95.5256 69.0545 95.7981 69.0499L96.2936 69.0413L95.708 68.9723C95.3862 68.9348 94.9 68.8812 94.6276 68.8536L94.1321 68.8032L94.7177 68.9309ZM101.714 68.8565C101.683 68.8879 101.322 68.943 100.911 68.9788C100.216 69.0392 100.202 69.0442 100.706 69.0528C101.003 69.0578 101.489 69.007 101.787 68.9398C102.178 68.8515 102.25 68.8154 102.049 68.8086C101.896 68.8036 101.746 68.825 101.714 68.8565ZM97.2617 69.1368C97.794 69.1525 98.6652 69.1525 99.1975 69.1368C99.7298 69.1207 99.2944 69.1078 98.2294 69.1078C97.1648 69.1078 96.729 69.1207 97.2617 69.1368Z" fill="#7BEA4C"/>
<path fill-rule="evenodd" clip-rule="evenodd" d="M96.9245 20.8065C95.4348 20.8923 93.0135 21.2391 92.602 21.4253C92.503 21.47 92.2803 21.5304 92.1069 21.5597C91.7873 21.6137 90.4109 22.0159 90.0806 22.1521C89.1075 22.5532 88.2552 22.9132 88.1447 22.9701C88.0703 23.0083 87.7257 23.1717 87.3793 23.3333C86.4941 23.7451 84.4331 25.0221 83.7321 25.5934C83.5587 25.7346 83.3764 25.8801 83.327 25.917C82.4962 26.5354 81.2957 27.6594 80.4163 28.6422C79.1014 30.1111 78.5569 30.8458 77.4179 32.6876C77.0279 33.3179 75.9507 35.4872 75.7638 36.0195C75.3619 37.161 75.0881 37.9922 75.0069 38.3158C74.9572 38.5138 74.8386 38.9596 74.7435 39.3064C73.9169 42.3162 73.8976 47.0077 74.6977 50.4726C74.7778 50.8193 74.8779 51.1414 74.9204 51.1883C74.9626 51.2355 74.9973 51.3445 74.9973 51.431C74.9973 51.5865 75.506 53.196 75.7191 53.7144C75.7802 53.8631 75.8614 54.0654 75.8993 54.1645C78.1225 59.9635 83.5033 65.1873 89.6755 67.5393C90.0963 67.6998 90.5221 67.8631 90.6211 67.9025C90.7201 67.9414 91.0444 68.0415 91.3415 68.1248C91.6386 68.2081 92.0611 68.3329 92.2806 68.4019C92.4998 68.4709 92.7908 68.5277 92.9273 68.5277C93.0639 68.5277 93.2898 68.5717 93.4293 68.6257C93.6724 68.7197 93.9845 68.7651 95.8889 68.985C96.9156 69.1033 100.909 69.0368 101.697 68.8885C103.43 68.5617 105.174 68.1477 105.93 67.8835C107.189 67.4434 109.546 66.3713 109.99 66.036C110.143 65.9205 110.31 65.8261 110.36 65.8261C110.454 65.8261 112.129 64.7325 112.773 64.251C113.987 63.3426 115.269 62.1582 116.24 61.0474C116.562 60.6792 116.85 60.3578 116.879 60.3331C116.967 60.2595 118.491 58.1896 118.491 58.1442C118.491 58.1209 118.649 57.8646 118.842 57.5743C119.216 57.0102 120.147 55.2395 120.421 54.5699C121.065 52.9969 121.6 51.3148 121.866 50.0221C121.947 49.626 122.053 49.1194 122.1 48.8967C122.479 47.1017 122.478 42.7956 122.099 40.9724C122.052 40.7493 121.948 40.2427 121.868 39.8466C121.787 39.4505 121.686 39.0247 121.644 38.901C121.601 38.7773 121.478 38.3719 121.371 38.0005C121.139 37.2047 120.995 36.7682 120.759 36.1547C120.41 35.2441 120.186 34.7118 120.116 34.6239C120.076 34.5742 119.801 34.0647 119.504 33.4913C118.91 32.3452 117.226 29.8184 116.867 29.5359C116.836 29.5109 116.556 29.1942 116.245 28.8317C115.435 27.885 114.265 26.7785 113.278 26.0238C113.116 25.9002 112.775 25.6327 112.518 25.4304C111.376 24.5259 109.151 23.2872 107.37 22.5643C106.925 22.3834 106.479 22.1982 106.38 22.1528C106.18 22.061 104.55 21.5733 104.129 21.479C103.221 21.2759 102.515 21.1454 101.922 21.071C101.551 21.0246 101.065 20.947 100.842 20.8991C100.262 20.774 98.292 20.7275 96.9245 20.8065ZM101.067 23.2336C102.956 23.5038 103.317 23.5653 103.647 23.6733C103.813 23.7276 104.333 23.8967 104.804 24.049C105.274 24.2017 105.74 24.3597 105.84 24.4001C107.24 24.9739 108.116 25.3525 108.226 25.4315C108.3 25.4847 108.442 25.5727 108.541 25.6267C109.63 26.2212 110.104 26.4972 110.342 26.6752C110.392 26.7124 110.763 26.9834 111.167 27.278C112.263 28.0752 113.87 29.5202 114.445 30.2259C114.573 30.3825 114.886 30.7471 115.141 31.0364C116.102 32.1267 118.222 35.5591 118.222 36.0253C118.222 36.0714 118.34 36.3624 118.485 36.672C119.011 37.7945 119.4 39.197 119.841 41.5576C120.15 43.2125 120.151 46.9144 119.842 48.4463C119.788 48.7187 119.682 49.2456 119.608 49.6171C119.41 50.6134 118.922 52.2547 118.632 52.9039C118.565 53.0526 118.47 53.2754 118.421 53.3991C118.286 53.7405 117.203 55.9527 117.121 56.0556C117.081 56.1053 116.739 56.6116 116.361 57.1814C114.952 59.3014 113.182 61.1454 111.18 62.5757C110.62 62.9761 110.115 63.3429 110.057 63.3908C109.77 63.6286 107.253 64.9263 106.56 65.1937C106.461 65.232 106.26 65.312 106.113 65.3714C104.949 65.8429 102.852 66.3963 101.247 66.6552C100.28 66.8114 96.2707 66.8114 95.3036 66.6555C93.352 66.3406 92.2266 66.046 90.1707 65.3113C89.7706 65.1683 88.0056 64.3042 87.5144 64.0107C87.341 63.9071 87.0776 63.7555 86.9288 63.674C86.201 63.2743 84.3434 61.9169 83.7571 61.3559C83.6606 61.2641 83.3217 60.9402 83.0042 60.6366C81.9836 59.6617 81.0069 58.5085 80.265 57.4031C80.067 57.1078 79.8747 56.8525 79.8375 56.8361C79.8003 56.8196 79.7699 56.7646 79.7699 56.7142C79.7699 56.6634 79.6466 56.4392 79.4957 56.2158C79.3448 55.9924 78.9577 55.257 78.6352 54.5817C78.3127 53.9067 77.9903 53.2393 77.9188 53.0991C77.8473 52.959 77.7886 52.8031 77.7886 52.7527C77.7886 52.7023 77.7332 52.5332 77.6657 52.3773C77.5977 52.2211 77.4705 51.8504 77.3829 51.5533C77.2949 51.2558 77.1884 50.9116 77.1459 50.7875C76.5824 49.147 76.2296 44.9453 76.4655 42.683C76.5867 41.52 77.0039 39.3557 77.1641 39.0597C77.2106 38.9739 77.2485 38.8513 77.2485 38.7873C77.2485 38.6132 77.6868 37.2933 77.8984 36.83C78.0003 36.6069 78.114 36.3434 78.1511 36.2444C78.3496 35.716 79.2962 33.9132 79.6005 33.4842C79.6938 33.3526 79.7699 33.2193 79.7699 33.1874C79.7699 33.156 79.9326 32.91 80.1313 32.6408C80.3301 32.3716 80.5932 32.0034 80.7162 31.8225C81.408 30.8033 83.4211 28.7312 84.5422 27.885C85.0123 27.53 85.4527 27.1872 85.5203 27.1232C85.6283 27.0213 86.3751 26.5172 86.8112 26.2516C86.9549 26.1643 87.5098 25.8626 88.5498 25.3056C89.2147 24.9496 90.2085 24.5542 91.4766 24.1413C92.0954 23.9393 92.7375 23.7294 92.9034 23.6744C93.2251 23.5678 93.6677 23.4899 95.1685 23.2754C95.6887 23.201 96.1545 23.1235 96.2042 23.1031C96.5116 22.9776 99.9122 23.0688 101.067 23.2336ZM89.9007 32.5493C89.8511 32.5647 89.5676 32.6272 89.2701 32.6884C86.9878 33.1578 86.4788 34.2821 86.2936 39.2614C86.1802 42.3062 85.7691 43.1592 84.3377 43.3161C83.4729 43.4112 83.4622 43.4309 83.4622 44.9124C83.4622 46.3988 83.4747 46.4264 84.2054 46.5047C85.8042 46.6759 86.2532 47.579 86.2542 50.6259C86.2546 51.5819 86.2971 52.6233 86.3486 52.9404C86.4001 53.2578 86.4766 53.7848 86.5188 54.1112C86.7976 56.278 87.9856 57.2089 90.486 57.2207L91.7015 57.2265L91.7265 55.9066L91.7515 54.5867L90.8406 54.5559C89.4478 54.5084 89.3838 54.3525 89.2712 50.7428C89.1815 47.8667 88.7996 46.6791 87.5713 45.459C87.2309 45.1208 86.991 44.8444 87.0379 44.8444C87.0847 44.8444 87.3049 44.6721 87.5273 44.4616C88.8611 43.1999 89.205 42.007 89.2726 38.4059C89.3248 35.6295 89.4996 35.2992 90.915 35.2992C91.3436 35.2992 91.6629 35.2566 91.7286 35.1909C91.9085 35.011 91.8774 32.6322 91.6943 32.5622C91.5517 32.5075 90.0706 32.4971 89.9007 32.5493ZM105.389 32.585C104.583 32.6973 104.591 32.6823 104.616 34.004C104.641 35.3589 104.591 35.296 105.63 35.2978C106.388 35.2988 106.422 35.3081 106.72 35.5916L107.028 35.8844L107.137 37.3251C107.363 40.321 107.544 41.9623 107.716 42.5718C107.947 43.3887 108.539 44.2206 109.24 44.7143L109.49 44.8895L108.879 45.5198C107.618 46.8196 107.37 47.7141 107.249 51.377C107.153 54.2953 107.008 54.5699 105.566 54.5699C104.706 54.5699 104.714 54.5559 104.714 56.0285V57.2715H105.935C109.38 57.2715 110.021 56.2026 110.258 50.0672C110.359 47.4285 110.752 46.7499 112.316 46.5158L112.953 46.4203L112.978 44.9864C113.007 43.3286 113.053 43.4212 112.157 43.3208C110.606 43.1467 110.369 42.5586 110.161 38.3608C109.99 34.9159 109.864 34.4097 108.963 33.5678C108.131 32.7892 106.718 32.4006 105.389 32.585ZM91.8816 43.3025C90.4059 43.6836 90.1285 45.5762 91.4258 46.4114C91.8284 46.6706 92.7772 46.6566 93.2162 46.3853C94.8854 45.3535 93.785 42.8113 91.8816 43.3025ZM97.8251 43.2839C97.1165 43.4402 96.5191 44.1852 96.5191 44.912C96.5191 46.7542 99.0989 47.3123 99.7971 45.6213C100.361 44.2564 99.2712 42.9651 97.8251 43.2839ZM103.769 43.2879C102.064 43.6986 102.039 46.1854 103.736 46.5497C104.854 46.7892 105.481 46.4335 105.85 45.3496C106.247 44.1838 105.034 42.9826 103.769 43.2879Z" fill="#1E3C48"/>
</g>
<defs>
<clipPath id="clip0_1304_16">
<rect width="198" height="90" fill="white"/>
</clipPath>
</defs>
</svg>
