<svg width="493" height="183" viewBox="0 0 493 183" fill="none" xmlns="http://www.w3.org/2000/svg">
<path d="M82.5031 99.9682C82.5031 98.48 81.9779 97.3421 80.9274 96.5542C79.877 95.7489 77.9862 94.9085 75.255 94.0331C72.5238 93.1402 70.3616 92.2649 68.7685 91.407C64.4266 89.061 62.2557 85.9009 62.2557 81.9267C62.2557 79.8608 62.8334 78.0225 63.9889 76.4118C65.1619 74.7836 66.8339 73.5143 69.0048 72.6039C71.1933 71.6935 73.6443 71.2383 76.358 71.2383C79.0891 71.2383 81.5227 71.7373 83.6586 72.7352C85.7945 73.7156 87.449 75.1075 88.622 76.9108C89.8125 78.714 90.4078 80.7624 90.4078 83.0559H82.5294C82.5294 81.3052 81.9779 79.9483 80.8749 78.9854C79.7719 78.005 78.2225 77.5148 76.2267 77.5148C74.3008 77.5148 72.8039 77.9262 71.736 78.7491C70.668 79.5544 70.134 80.6224 70.134 81.9529C70.134 83.196 70.7556 84.2377 71.9986 85.078C73.2591 85.9184 75.1062 86.7062 77.5397 87.4415C82.0217 88.7896 85.2868 90.4616 87.3352 92.4575C89.3836 94.4533 90.4078 96.9394 90.4078 99.9157C90.4078 103.225 89.156 105.824 86.6524 107.715C84.1488 109.589 80.7786 110.525 76.5418 110.525C73.6005 110.525 70.9219 109.991 68.5058 108.923C66.0898 107.838 64.2428 106.358 62.9647 104.485C61.7042 102.612 61.0739 100.441 61.0739 97.9723H68.9786C68.9786 102.192 71.4996 104.301 76.5418 104.301C78.4151 104.301 79.877 103.925 80.9274 103.172C81.9779 102.402 82.5031 101.334 82.5031 99.9682ZM121.218 96.0553C121.218 100.432 120.22 103.942 118.224 106.586C116.246 109.212 113.567 110.525 110.188 110.525C107.317 110.525 104.997 109.527 103.229 107.531V120.925H95.6396V81.5853H102.678L102.94 84.369C104.779 82.163 107.177 81.0601 110.136 81.0601C113.637 81.0601 116.36 82.3556 118.303 84.9467C120.246 87.5378 121.218 91.1094 121.218 95.6613V96.0553ZM113.629 95.5038C113.629 92.8601 113.156 90.8205 112.21 89.3849C111.283 87.9493 109.926 87.2315 108.14 87.2315C105.759 87.2315 104.122 88.1418 103.229 89.9626V101.596C104.157 103.47 105.811 104.406 108.192 104.406C111.817 104.406 113.629 101.439 113.629 95.5038ZM142.285 88.7021C141.253 88.562 140.342 88.492 139.554 88.492C136.683 88.492 134.801 89.4637 133.908 91.407V110H126.319V81.5853H133.488L133.698 84.973C135.221 82.3644 137.331 81.0601 140.027 81.0601C140.867 81.0601 141.655 81.1739 142.391 81.4014L142.285 88.7021ZM154.345 110H146.729V81.5853H154.345V110ZM146.283 74.2321C146.283 73.0941 146.659 72.1575 147.412 71.4222C148.183 70.6868 149.224 70.3192 150.537 70.3192C151.833 70.3192 152.866 70.6868 153.636 71.4222C154.407 72.1575 154.792 73.0941 154.792 74.2321C154.792 75.3876 154.398 76.333 153.61 77.0683C152.84 77.8037 151.815 78.1713 150.537 78.1713C149.259 78.1713 148.226 77.8037 147.439 77.0683C146.668 76.333 146.283 75.3876 146.283 74.2321ZM167.981 81.5853L168.217 84.8679C170.248 82.3293 172.97 81.0601 176.384 81.0601C179.396 81.0601 181.637 81.9442 183.107 83.7124C184.578 85.4807 185.331 88.1243 185.366 91.6434V110H177.776V91.8272C177.776 90.2165 177.426 89.0522 176.726 88.3344C176.025 87.5991 174.861 87.2315 173.233 87.2315C171.097 87.2315 169.495 88.1418 168.427 89.9626V110H160.838V81.5853H167.981ZM200.603 74.5998V81.5853H205.461V87.1527H200.603V101.334C200.603 102.384 200.804 103.137 201.207 103.592C201.61 104.047 202.38 104.275 203.518 104.275C204.358 104.275 205.103 104.214 205.75 104.091V109.842C204.262 110.298 202.73 110.525 201.155 110.525C195.832 110.525 193.119 107.838 193.014 102.463V87.1527H188.864V81.5853H193.014V74.5998H200.603ZM221.881 104.406C223.281 104.406 224.419 104.021 225.295 103.251C226.17 102.481 226.625 101.456 226.66 100.178H233.777C233.759 102.104 233.234 103.872 232.201 105.483C231.168 107.076 229.75 108.319 227.947 109.212C226.161 110.088 224.183 110.525 222.012 110.525C217.95 110.525 214.746 109.238 212.4 106.665C210.054 104.074 208.881 100.502 208.881 95.9502V95.4512C208.881 91.0744 210.045 87.5816 212.374 84.973C214.702 82.3644 217.898 81.0601 221.959 81.0601C225.513 81.0601 228.358 82.0755 230.494 84.1064C232.648 86.1197 233.742 88.8071 233.777 92.1686H226.66C226.625 90.6979 226.17 89.5074 225.295 88.597C224.419 87.6691 223.264 87.2052 221.828 87.2052C220.06 87.2052 218.72 87.853 217.81 89.1485C216.917 90.4266 216.471 92.51 216.471 95.3987V96.1866C216.471 99.1103 216.917 101.211 217.81 102.489C218.703 103.767 220.06 104.406 221.881 104.406ZM245.889 84.6841C247.903 82.2681 250.432 81.0601 253.479 81.0601C259.641 81.0601 262.766 84.6403 262.854 91.8009V110H255.265V92.011C255.265 90.3828 254.914 89.1835 254.214 88.4132C253.514 87.6254 252.35 87.2315 250.721 87.2315C248.498 87.2315 246.887 88.0893 245.889 89.8051V110H238.3V69.6626H245.889V84.6841ZM282.031 110.525C277.864 110.525 274.467 109.247 271.841 106.691C269.233 104.135 267.928 100.73 267.928 96.4754V95.7401C267.928 92.8864 268.48 90.339 269.583 88.0981C270.686 85.8396 272.244 84.1064 274.257 82.8983C276.288 81.6728 278.599 81.0601 281.19 81.0601C285.077 81.0601 288.132 82.2856 290.355 84.7366C292.596 87.1877 293.717 90.6629 293.717 95.1624V98.2612H275.623C275.868 100.117 276.603 101.605 277.829 102.726C279.072 103.846 280.639 104.406 282.53 104.406C285.453 104.406 287.738 103.347 289.384 101.229L293.113 105.404C291.975 107.015 290.434 108.276 288.491 109.186C286.548 110.079 284.394 110.525 282.031 110.525ZM281.164 87.2052C279.658 87.2052 278.433 87.7129 277.487 88.7284C276.56 89.7438 275.964 91.1969 275.702 93.0877H286.259V92.4837C286.224 90.803 285.768 89.5074 284.893 88.597C284.018 87.6691 282.775 87.2052 281.164 87.2052ZM310.241 104.406C311.642 104.406 312.78 104.021 313.655 103.251C314.53 102.481 314.986 101.456 315.021 100.178H322.137C322.12 102.104 321.595 103.872 320.562 105.483C319.529 107.076 318.111 108.319 316.307 109.212C314.522 110.088 312.543 110.525 310.372 110.525C306.311 110.525 303.107 109.238 300.761 106.665C298.415 104.074 297.242 100.502 297.242 95.9502V95.4512C297.242 91.0744 298.406 87.5816 300.734 84.973C303.063 82.3644 306.258 81.0601 310.32 81.0601C313.874 81.0601 316.719 82.0755 318.855 84.1064C321.008 86.1197 322.102 88.8071 322.137 92.1686H315.021C314.986 90.6979 314.53 89.5074 313.655 88.597C312.78 87.6691 311.624 87.2052 310.189 87.2052C308.42 87.2052 307.081 87.853 306.171 89.1485C305.278 90.4266 304.831 92.51 304.831 95.3987V96.1866C304.831 99.1103 305.278 101.211 306.171 102.489C307.063 103.767 308.42 104.406 310.241 104.406ZM337.165 98.6026L334.434 101.334V110H326.844V69.6626H334.434V92.011L335.904 90.1202L343.179 81.5853H352.291L342.023 93.4291L353.184 110H344.465L337.165 98.6026ZM354.766 95.53C354.766 92.7113 355.308 90.199 356.394 87.993C357.479 85.7871 359.037 84.0801 361.068 82.8721C363.117 81.6641 365.489 81.0601 368.185 81.0601C372.019 81.0601 375.144 82.2331 377.56 84.5791C379.994 86.9251 381.351 90.1114 381.631 94.1382L381.683 96.0815C381.683 100.441 380.467 103.942 378.033 106.586C375.6 109.212 372.334 110.525 368.238 110.525C364.141 110.525 360.867 109.212 358.416 106.586C355.982 103.96 354.766 100.388 354.766 95.8714V95.53ZM362.355 96.0815C362.355 98.7777 362.863 100.844 363.878 102.279C364.894 103.697 366.347 104.406 368.238 104.406C370.076 104.406 371.512 103.706 372.545 102.305C373.577 100.887 374.094 98.6289 374.094 95.53C374.094 92.8864 373.577 90.838 372.545 89.3849C371.512 87.9318 370.058 87.2052 368.185 87.2052C366.329 87.2052 364.894 87.9318 363.878 89.3849C362.863 90.8205 362.355 93.0527 362.355 96.0815ZM403.749 107.111C401.875 109.387 399.284 110.525 395.975 110.525C392.929 110.525 390.601 109.65 388.99 107.899C387.397 106.148 386.583 103.583 386.548 100.205V81.5853H394.137V99.9419C394.137 102.901 395.485 104.38 398.181 104.38C400.755 104.38 402.523 103.487 403.486 101.701V81.5853H411.102V110H403.959L403.749 107.111ZM426.287 74.5998V81.5853H431.145V87.1527H426.287V101.334C426.287 102.384 426.488 103.137 426.891 103.592C427.294 104.047 428.064 104.275 429.202 104.275C430.042 104.275 430.786 104.214 431.434 104.091V109.842C429.946 110.298 428.414 110.525 426.838 110.525C421.516 110.525 418.802 107.838 418.697 102.463V87.1527H414.548V81.5853H418.697V74.5998H426.287Z" fill="#183B56"/>
<path fill-rule="evenodd" clip-rule="evenodd" d="M449.581 88.8919C453.707 88.8919 457.051 85.5475 457.051 81.422C457.051 77.2965 453.707 73.9521 449.581 73.9521C445.456 73.9521 442.111 77.2965 442.111 81.422C442.111 85.5475 445.456 88.8919 449.581 88.8919Z" fill="#1576D8"/>
</svg>
