<svg width="2196" height="433" viewBox="0 0 2196 433" fill="none" xmlns="http://www.w3.org/2000/svg">
<path fill-rule="evenodd" clip-rule="evenodd" d="M757.601 216L542.701 0.0996094V158.3L329.301 316.6L542.701 316.7V432L757.601 216Z" fill="#B1B0B0" fill-opacity="0.9"/>
<path fill-rule="evenodd" clip-rule="evenodd" d="M0 216L214.9 432V275.4L426.8 117L215 116.9V0L0 216Z" fill="#B1B0B0" fill-opacity="0.9"/>
<path d="M1088.5 343.2H923.6V295.6L1018 189.7H926V142.9H1086.8V188.1L989.6 296H1088.5V343.2Z" fill="#B1B0B0" fill-opacity="0.9"/>
<path d="M1313.5 142.9L1233.7 227.2L1315.1 343.2H1249.1L1196.4 266.7L1174.1 290.3V343.2H1120.2V48.5H1174.1V217.5L1243 143H1313.5V142.9Z" fill="#B1B0B0" fill-opacity="0.9"/>
<path d="M1547.9 123.399L1497.7 138.899C1495.8 128.599 1490.7 119.199 1482.3 110.799C1473.9 102.399 1461.6 98.1992 1445.4 98.1992C1432.2 98.1992 1421.4 101.899 1413 109.199C1404.6 116.299 1400.4 124.799 1400.4 134.799C1400.4 152.399 1410.8 163.299 1431.6 167.399L1471.7 175.099C1497.1 179.999 1516.8 190.199 1530.9 205.599C1545 221.099 1552 239.299 1552 260.199C1552 284.099 1542.6 304.999 1523.6 322.899C1505 340.499 1479.8 349.399 1448.2 349.399C1430.1 349.399 1413.8 346.699 1399.2 341.299C1384.6 335.899 1372.9 328.699 1364 319.699C1355.1 310.499 1348.1 300.799 1342.9 290.799C1338 280.499 1335.1 269.899 1334 258.999L1385.9 245.199C1387.2 260.699 1393.2 273.599 1403.7 283.899C1414.5 294.199 1429.5 299.399 1448.7 299.399C1463.3 299.399 1474.6 296.099 1482.7 289.599C1491.1 283.099 1495.3 274.499 1495.3 263.999C1495.3 255.599 1492.2 248.399 1486 242.399C1480.1 236.199 1471.5 231.999 1460.5 229.799L1420.4 221.699C1397.2 216.799 1378.8 207.199 1365.3 192.799C1351.8 178.399 1345.1 160.499 1345.1 139.099C1345.1 113.599 1354.8 92.0992 1374.3 74.7992C1394 57.3992 1417.6 48.6992 1445.2 48.6992C1461.7 48.6992 1476.4 50.9992 1489.4 55.5992C1502.4 60.1992 1512.8 66.4992 1520.6 74.2992C1528.4 81.8992 1534.5 89.7992 1538.8 97.8992C1542.9 105.899 1546 114.399 1547.9 123.399Z" fill="#B1B0B0" fill-opacity="0.9"/>
<path d="M1642.7 422.2H1585.6L1632.6 318L1547.9 142.9H1608.3L1661.4 260.1L1710.4 142.9H1767.9L1642.7 422.2Z" fill="#B1B0B0" fill-opacity="0.9"/>
<path d="M1842.3 228V343.2H1788.4V142.9H1840.7V167.7C1846.4 157.9 1854.5 150.5 1865 145.3C1875.5 140.1 1886.6 137.6 1898.2 137.6C1921.7 137.6 1939.5 145.1 1951.7 160C1964.1 174.7 1970.3 193.7 1970.3 217V343.2H1916.4V226.4C1916.4 214.5 1913.3 204.8 1907.1 197.5C1901.2 190.2 1892 186.5 1879.5 186.5C1868.2 186.5 1859.1 190.4 1852.4 198.3C1845.7 206.2 1842.3 216.1 1842.3 228Z" fill="#B1B0B0" fill-opacity="0.9"/>
<path d="M2102.4 186.9C2088.1 186.9 2076.1 191.9 2066.3 202C2056.6 212 2051.7 225.7 2051.7 243.1C2051.7 260.5 2056.6 274.3 2066.3 284.6C2076.3 294.6 2088.4 299.7 2102.8 299.7C2115.5 299.7 2125.6 296.4 2133.2 289.9C2140.8 283.1 2145.9 275.1 2148.6 265.9L2196 281.8C2191.1 300.3 2180.6 316.1 2164.4 329.4C2148.2 342.7 2127.7 349.3 2102.8 349.3C2073.1 349.3 2048.1 339.3 2027.8 319.2C2007.8 298.8 1997.8 273.5 1997.8 243.1C1997.8 212.4 2007.7 187.1 2027.4 167C2047.4 146.9 2072 136.9 2101.1 136.9C2126.5 136.9 2147.3 143.5 2163.5 156.8C2179.7 169.8 2190.1 185.7 2194.7 204.4L2146.5 220.7C2140.1 198.1 2125.4 186.9 2102.4 186.9Z" fill="#B1B0B0" fill-opacity="0.9"/>
</svg>
